<?xml version="1.0" encoding="UTF-8" standalone="no"?>
<!DOCTYPE svg PUBLIC "-//W3C//DTD SVG 1.1//EN" "http://www.w3.org/Graphics/SVG/1.1/DTD/svg11.dtd">
<svg version="1.1" xmlns="http://www.w3.org/2000/svg" xmlns:xlink="http://www.w3.org/1999/xlink" preserveAspectRatio="xMidYMid meet" viewBox="0 0 593 86" width="593" height="86"><defs><path d="M370.41 83.28L370.41 75.42L369.6 76.77L369.44 77.02L369.26 77.28L369.09 77.53L368.9 77.78L368.7 78.02L368.5 78.27L368.29 78.51L368.07 78.75L367.84 78.99L367.61 79.22L367.37 79.45L367.13 79.68L366.88 79.9L366.62 80.12L366.36 80.34L366.09 80.56L365.81 80.77L365.53 80.97L365.25 81.17L364.96 81.37L364.66 81.56L364.36 81.75L364.06 81.94L363.75 82.11L363.44 82.29L363.13 82.46L362.81 82.62L362.49 82.78L362.17 82.93L361.84 83.08L361.51 83.22L361.18 83.36L360.84 83.49L360.51 83.61L360.17 83.73L359.83 83.84L359.49 83.95L359.15 84.05L358.81 84.14L358.46 84.22L358.22 84.27L357.97 84.32L357.7 84.37L357.42 84.41L357.13 84.45L356.82 84.49L356.51 84.52L356.19 84.55L355.85 84.58L355.51 84.6L355.16 84.62L354.8 84.64L354.44 84.66L354.07 84.67L353.7 84.68L353.32 84.68L352.94 84.68L352.56 84.68L352.17 84.68L351.79 84.68L351.4 84.67L351.02 84.65L350.63 84.64L350.25 84.62L349.87 84.6L349.5 84.58L349.13 84.55L348.76 84.52L348.4 84.49L348.05 84.45L347.7 84.42L347.36 84.38L347.04 84.33L346.72 84.29L346.41 84.24L346.11 84.19L345.82 84.13L345.55 84.07L345.29 84.01L345.04 83.95L344.36 83.77L343.7 83.56L343.04 83.35L342.4 83.11L341.76 82.87L341.14 82.6L340.53 82.32L339.93 82.03L339.34 81.72L338.76 81.39L338.2 81.05L337.64 80.7L337.1 80.33L336.57 79.94L336.05 79.54L335.54 79.12L335.04 78.69L334.55 78.24L334.08 77.78L333.62 77.3L333.16 76.81L332.72 76.3L332.29 75.78L331.88 75.24L331.47 74.68L331.08 74.11L330.69 73.53L330.32 72.93L329.96 72.32L329.61 71.69L329.28 71.04L328.95 70.38L328.64 69.71L328.33 69.01L328.04 68.31L327.77 67.59L327.5 66.85L327.24 66.1L327 65.34L326.77 64.56L326.7 64.33L326.64 64.11L326.58 63.89L326.52 63.68L326.47 63.47L326.42 63.27L326.37 63.06L326.32 62.86L326.27 62.65L326.23 62.45L326.19 62.25L326.15 62.04L326.11 61.83L326.08 61.62L326.05 61.41L326.02 61.19L325.99 60.97L325.96 60.74L325.94 60.51L325.92 60.26L325.9 60.02L325.88 59.76L325.86 59.49L325.84 59.22L325.83 58.93L325.81 58.64L325.8 58.33L325.79 58.01L325.78 57.68L325.77 57.33L325.76 56.97L325.76 56.59L325.75 56.2L325.75 55.8L325.74 55.37L325.74 54.93L325.74 54.47L325.74 53.99L325.74 53.49L325.74 52.98L325.74 52.5L325.74 52.04L325.74 51.59L325.74 51.16L325.75 50.74L325.75 50.34L325.76 49.95L325.76 49.57L325.77 49.2L325.78 48.85L325.78 48.51L325.79 48.18L325.8 47.86L325.82 47.55L325.83 47.25L325.84 46.96L325.86 46.68L325.87 46.4L325.89 46.14L325.91 45.88L325.93 45.63L325.95 45.39L325.98 45.16L326 44.93L326.02 44.7L326.05 44.49L326.08 44.27L326.11 44.06L326.14 43.86L326.17 43.66L326.21 43.46L326.24 43.26L326.28 43.07L326.32 42.88L326.36 42.69L326.4 42.5L326.45 42.32L326.49 42.13L326.54 41.94L326.59 41.75L326.79 41.02L327 40.3L327.23 39.59L327.47 38.89L327.72 38.2L327.99 37.53L328.26 36.86L328.56 36.21L328.86 35.57L329.18 34.94L329.51 34.33L329.85 33.72L330.2 33.13L330.57 32.55L330.95 31.99L331.34 31.44L331.74 30.9L332.15 30.37L332.57 29.86L333.01 29.36L333.46 28.88L333.91 28.41L334.38 27.95L334.86 27.51L335.35 27.08L335.85 26.67L336.36 26.27L336.88 25.88L337.41 25.51L337.95 25.16L338.5 24.82L339.06 24.5L339.63 24.19L340.21 23.9L340.8 23.63L341.4 23.37L342 23.12L342.62 22.9L343.24 22.69L343.87 22.49L344.12 22.42L344.38 22.36L344.65 22.3L344.93 22.24L345.23 22.18L345.53 22.13L345.85 22.08L346.17 22.04L346.51 22L346.85 21.96L347.2 21.93L347.55 21.9L347.91 21.87L348.28 21.85L348.65 21.83L349.02 21.81L349.4 21.8L349.78 21.79L350.17 21.79L350.55 21.79L350.94 21.79L351.32 21.79L351.71 21.8L352.09 21.81L352.48 21.83L352.86 21.85L353.23 21.87L353.61 21.9L353.98 21.93L354.34 21.96L354.7 22L355.05 22.04L355.4 22.08L355.74 22.13L356.07 22.18L356.39 22.24L356.7 22.3L357 22.36L357.29 22.42L357.57 22.49L357.86 22.57L358.16 22.66L358.45 22.74L358.74 22.83L359.03 22.93L359.32 23.03L359.6 23.13L359.89 23.23L360.17 23.34L360.45 23.46L360.73 23.57L361.01 23.69L361.28 23.81L361.56 23.94L361.83 24.07L362.09 24.2L362.36 24.34L362.62 24.48L362.89 24.62L363.14 24.77L363.4 24.92L363.65 25.07L363.91 25.23L364.15 25.39L364.4 25.55L364.64 25.72L364.88 25.88L365.12 26.06L365.35 26.23L365.58 26.41L365.81 26.59L366.04 26.77L366.26 26.96L366.48 27.14L366.69 27.33L366.9 27.53L367.11 27.72L367.31 27.92L367.52 28.12L367.71 28.33L369.96 30.71L369.96 0.67L382.98 0.67L382.98 83.28L370.41 83.28ZM352.52 32.66L352.17 32.68L351.84 32.7L351.52 32.73L351.21 32.77L350.92 32.82L350.63 32.88L350.34 32.94L350.06 33.02L349.78 33.11L349.5 33.21L349.21 33.32L348.92 33.44L348.61 33.58L348.29 33.72L347.96 33.89L347.61 34.06L347.24 34.25L346.57 34.63L345.91 35.07L345.28 35.56L344.67 36.1L344.09 36.69L343.53 37.33L342.99 38.02L342.48 38.75L342 39.52L341.55 40.34L341.12 41.19L340.72 42.08L340.36 43L340.02 43.96L339.72 44.95L339.45 45.97L339.21 47.02L339 48.09L338.84 49.19L338.7 50.31L338.61 51.45L338.55 52.61L338.53 53.78L338.56 54.99L338.64 56.17L338.76 57.34L338.93 58.49L339.15 59.61L339.4 60.7L339.7 61.77L340.04 62.8L340.42 63.8L340.84 64.77L341.29 65.7L341.78 66.59L342.3 67.44L342.86 68.24L343.45 69L344.07 69.71L344.72 70.37L345.39 70.97L346.1 71.53L346.83 72.02L347.59 72.45L348.37 72.82L349.17 73.13L349.53 73.24L349.92 73.35L350.32 73.44L350.74 73.52L351.18 73.59L351.63 73.65L352.09 73.7L352.56 73.74L353.03 73.77L353.52 73.79L354 73.8L354.49 73.8L354.97 73.79L355.45 73.77L355.93 73.74L356.4 73.7L356.86 73.65L357.31 73.59L357.75 73.52L358.17 73.44L358.57 73.35L358.95 73.24L359.32 73.13L359.88 72.92L360.45 72.67L361 72.37L361.55 72.04L362.09 71.68L362.62 71.28L363.15 70.85L363.66 70.39L364.16 69.89L364.64 69.37L365.11 68.82L365.57 68.25L366.01 67.65L366.43 67.02L366.84 66.38L367.22 65.71L367.59 65.03L367.93 64.33L368.25 63.61L368.55 62.88L368.82 62.13L369.07 61.38L369.28 60.61L369.4 60.13L369.5 59.6L369.59 59.03L369.67 58.41L369.74 57.77L369.8 57.08L369.85 56.38L369.9 55.65L369.93 54.91L369.95 54.15L369.96 53.39L369.96 52.62L369.95 51.86L369.93 51.1L369.9 50.36L369.85 49.63L369.8 48.93L369.74 48.25L369.67 47.61L369.59 47L369.5 46.43L369.4 45.91L369.28 45.43L369.09 44.73L368.88 44.04L368.66 43.38L368.43 42.73L368.18 42.11L367.92 41.5L367.64 40.92L367.36 40.35L367.05 39.8L366.74 39.27L366.41 38.76L366.06 38.27L365.71 37.8L365.33 37.35L364.95 36.91L364.55 36.5L364.13 36.1L363.7 35.73L363.26 35.37L362.8 35.03L362.33 34.71L361.84 34.4L361.34 34.12L361.08 33.98L360.83 33.85L360.59 33.73L360.36 33.62L360.14 33.51L359.92 33.42L359.7 33.33L359.48 33.25L359.26 33.18L359.04 33.12L358.81 33.06L358.58 33.01L358.34 32.96L358.09 32.92L357.83 32.88L357.55 32.84L357.26 32.81L356.96 32.79L356.64 32.76L356.3 32.74L355.94 32.72L355.55 32.7L355.14 32.68L354.63 32.67L354.16 32.66L353.71 32.65L353.29 32.65L352.89 32.65L352.52 32.66Z" id="d5MdSFgRV9"></path><path d="M297.69 21.81L298.1 21.82L298.51 21.84L298.93 21.86L299.34 21.88L299.76 21.91L300.17 21.94L300.57 21.98L300.97 22.02L301.37 22.07L301.77 22.12L302.15 22.18L302.53 22.24L302.9 22.3L303.27 22.37L303.62 22.45L303.97 22.52L304.31 22.61L304.63 22.69L304.94 22.78L305.24 22.88L305.53 22.97L305.8 23.08L306.18 23.22L306.55 23.38L306.91 23.54L307.26 23.7L307.61 23.87L307.96 24.05L308.3 24.23L308.63 24.42L308.95 24.61L309.27 24.81L309.59 25.02L309.9 25.23L310.2 25.45L310.5 25.67L310.79 25.9L311.07 26.14L311.35 26.38L311.62 26.63L311.89 26.88L312.15 27.14L312.41 27.41L312.66 27.68L312.9 27.96L313.14 28.25L313.37 28.54L313.6 28.84L313.82 29.14L314.03 29.45L314.24 29.77L314.45 30.09L314.65 30.42L314.84 30.76L315.02 31.1L315.21 31.45L315.38 31.8L315.55 32.16L315.72 32.53L315.87 32.9L316.03 33.28L316.17 33.67L316.25 33.87L316.32 34.06L316.38 34.24L316.44 34.43L316.5 34.61L316.56 34.8L316.61 35L316.66 35.2L316.7 35.41L316.75 35.64L316.79 35.88L316.83 36.14L316.86 36.42L316.9 36.72L316.93 37.04L316.96 37.39L316.99 37.77L317.01 38.18L317.04 38.63L317.06 39.11L317.08 39.63L317.1 40.19L317.12 40.79L317.14 41.44L317.15 42.13L317.17 42.87L317.18 43.67L317.2 44.52L317.21 45.43L317.22 46.39L317.23 47.42L317.25 48.51L317.26 49.67L317.27 50.89L317.28 52.19L317.29 53.55L317.3 55L317.32 56.52L317.33 58.12L317.34 59.8L317.48 83.28L304.46 83.28L304.32 62.49L304.31 60.78L304.3 59.15L304.28 57.6L304.27 56.13L304.25 54.73L304.23 53.41L304.22 52.16L304.2 50.97L304.17 49.86L304.15 48.8L304.12 47.81L304.09 46.88L304.06 46L304.02 45.18L303.98 44.41L303.93 43.69L303.88 43.01L303.83 42.38L303.77 41.8L303.71 41.25L303.64 40.75L303.56 40.27L303.48 39.83L303.39 39.43L303.29 39.05L303.19 38.69L303.08 38.37L302.96 38.06L302.84 37.77L302.71 37.5L302.57 37.24L302.42 37L302.26 36.76L302.09 36.54L301.91 36.31L301.72 36.09L301.52 35.88L301.32 35.65L301.1 35.43L300.87 35.2L300.73 35.06L300.59 34.92L300.44 34.79L300.3 34.67L300.16 34.54L300.01 34.42L299.86 34.31L299.71 34.2L299.55 34.09L299.39 33.99L299.24 33.89L299.07 33.79L298.91 33.7L298.74 33.61L298.57 33.53L298.4 33.45L298.22 33.37L298.05 33.3L297.86 33.23L297.68 33.17L297.49 33.1L297.3 33.05L297.1 32.99L296.9 32.94L296.7 32.89L296.49 32.84L296.28 32.8L296.07 32.76L295.85 32.73L295.63 32.7L295.4 32.67L295.17 32.64L294.93 32.62L294.69 32.6L294.44 32.59L294.19 32.57L293.94 32.56L293.68 32.55L293.41 32.55L293.14 32.55L292.62 32.56L292.1 32.59L291.59 32.63L291.09 32.7L290.59 32.78L290.1 32.88L289.63 33L289.15 33.13L288.69 33.28L288.24 33.45L287.79 33.64L287.36 33.84L286.93 34.06L286.51 34.29L286.11 34.54L285.71 34.81L285.32 35.09L284.95 35.39L284.58 35.7L284.23 36.03L283.88 36.37L283.55 36.73L283.23 37.1L282.92 37.48L282.62 37.88L282.34 38.3L282.06 38.73L281.8 39.17L281.56 39.62L281.32 40.09L281.1 40.57L280.89 41.06L280.69 41.56L280.51 42.08L280.34 42.61L280.19 43.15L280.05 43.71L279.93 44.27L279.82 44.85L279.72 45.43L279.7 45.58L279.69 45.74L279.67 45.94L279.65 46.16L279.64 46.41L279.62 46.68L279.6 46.98L279.59 47.29L279.57 47.64L279.56 48L279.54 48.38L279.53 48.79L279.51 49.22L279.5 49.66L279.48 50.12L279.47 50.61L279.45 51.11L279.44 51.62L279.43 52.15L279.41 52.7L279.4 53.26L279.39 53.84L279.38 54.43L279.37 55.03L279.36 55.64L279.35 56.27L279.34 56.91L279.33 57.55L279.32 58.21L279.31 58.87L279.3 59.55L279.3 60.23L279.29 60.91L279.29 61.61L279.28 62.31L279.28 63.01L279.28 63.72L279.27 64.43L279.27 65.14L279.27 65.86L279.27 83.19L276.04 83.46L275.36 83.51L274.67 83.56L273.96 83.61L273.24 83.66L272.51 83.71L271.78 83.76L271.04 83.81L270.29 83.86L269.54 83.9L268.79 83.95L268.03 84L267.28 84.04L266.53 84.09L265.78 84.13L265.03 84.18L264.29 84.22L263.56 84.26L262.84 84.3L262.12 84.34L261.42 84.37L260.73 84.41L260.06 84.44L259.4 84.47L258.75 84.5L258.13 84.53L257.52 84.56L256.94 84.59L256.38 84.61L255.84 84.63L255.33 84.65L254.84 84.67L254.38 84.68L253.95 84.7L253.55 84.71L253.19 84.71L252.86 84.72L252.56 84.72L252.3 84.72L252.07 84.72L251.89 84.71L251.61 84.7L251.33 84.68L251.06 84.65L250.79 84.62L250.53 84.59L250.28 84.55L250.03 84.5L249.78 84.46L249.54 84.4L249.3 84.34L249.07 84.28L248.84 84.21L248.61 84.14L248.39 84.06L248.18 83.98L247.97 83.89L247.76 83.79L247.56 83.7L247.37 83.59L247.17 83.49L246.99 83.37L246.8 83.26L246.62 83.13L246.45 83L246.28 82.87L246.11 82.73L245.95 82.59L245.79 82.44L245.64 82.29L245.49 82.13L245.34 81.97L245.2 81.8L245.06 81.63L244.93 81.45L244.8 81.27L244.67 81.08L244.55 80.88L244.43 80.68L244.32 80.48L244.21 80.27L244.12 80.11L244.04 79.95L243.97 79.8L243.89 79.66L243.82 79.53L243.75 79.4L243.69 79.29L243.63 79.18L243.57 79.07L243.52 78.98L243.46 78.89L243.41 78.81L243.36 78.73L243.32 78.66L243.27 78.6L243.23 78.55L243.19 78.5L243.15 78.45L243.11 78.42L243.07 78.38L243.03 78.36L243 78.34L242.96 78.32L242.92 78.31L242.89 78.31L242.85 78.31L242.81 78.32L242.78 78.33L242.74 78.34L242.7 78.36L242.66 78.39L242.62 78.42L242.58 78.45L242.54 78.49L242.49 78.53L242.44 78.57L242.4 78.62L242.34 78.67L242.29 78.73L242.24 78.79L242.13 78.9L242.02 79.01L241.88 79.12L241.74 79.24L241.58 79.36L241.4 79.49L241.22 79.62L241.02 79.75L240.81 79.88L240.6 80.02L240.37 80.15L240.13 80.29L239.88 80.43L239.62 80.57L239.36 80.72L239.09 80.86L238.81 81L238.52 81.15L238.23 81.29L237.94 81.43L237.64 81.57L237.33 81.71L237.02 81.85L236.71 81.99L236.4 82.13L236.09 82.26L235.77 82.39L235.46 82.52L235.14 82.65L234.82 82.77L234.51 82.89L234.2 83.01L233.89 83.12L233.58 83.23L233.27 83.33L232.97 83.43L232.68 83.52L232.38 83.61L232.1 83.69L231.82 83.77L231.46 83.86L231.08 83.95L230.7 84.03L230.32 84.11L229.92 84.18L229.52 84.25L229.12 84.32L228.71 84.38L228.3 84.43L227.88 84.48L227.46 84.52L227.04 84.57L226.61 84.6L226.18 84.63L225.76 84.66L225.33 84.68L224.9 84.7L224.47 84.71L224.04 84.72L223.61 84.72L223.18 84.72L222.76 84.71L222.34 84.7L221.92 84.69L221.51 84.67L221.1 84.64L220.69 84.61L220.3 84.58L219.9 84.54L219.52 84.5L219.14 84.45L218.76 84.4L218.4 84.34L218.04 84.28L217.69 84.21L217.36 84.14L217.03 84.07L216.71 83.99L216.4 83.91L216.11 83.82L215.54 83.63L214.99 83.43L214.45 83.23L213.93 83.01L213.41 82.78L212.91 82.54L212.42 82.3L211.95 82.04L211.48 81.77L211.03 81.5L210.59 81.21L210.16 80.91L209.75 80.61L209.35 80.29L208.96 79.97L208.59 79.63L208.22 79.29L207.87 78.94L207.54 78.58L207.21 78.21L206.9 77.83L206.6 77.44L206.32 77.04L206.05 76.63L205.79 76.22L205.54 75.79L205.31 75.36L205.1 74.92L204.89 74.47L204.7 74.01L204.52 73.54L204.36 73.06L204.21 72.58L204.07 72.09L203.95 71.58L203.84 71.08L203.74 70.56L203.66 70.03L203.59 69.5L203.54 68.96L203.49 68.36L203.47 67.76L203.45 67.18L203.45 66.6L203.47 66.02L203.5 65.46L203.55 64.9L203.6 64.34L203.68 63.8L203.77 63.26L203.87 62.73L203.98 62.21L204.11 61.7L204.26 61.19L204.42 60.7L204.59 60.21L204.77 59.73L204.97 59.26L205.18 58.8L205.41 58.35L205.64 57.91L205.89 57.48L206.16 57.06L206.44 56.65L206.73 56.24L207.03 55.85L207.34 55.47L207.67 55.1L208.01 54.75L208.37 54.4L208.73 54.06L209.11 53.74L209.5 53.43L209.9 53.13L210.31 52.84L210.74 52.56L211.18 52.3L211.63 52.05L212.09 51.81L212.56 51.58L212.79 51.48L213.02 51.38L213.26 51.28L213.5 51.18L213.74 51.09L213.99 50.99L214.24 50.9L214.5 50.81L214.77 50.72L215.04 50.63L215.32 50.54L215.6 50.46L215.9 50.37L216.2 50.29L216.51 50.21L216.83 50.12L217.16 50.04L217.5 49.96L217.85 49.88L218.22 49.79L218.59 49.71L218.98 49.63L219.38 49.55L219.79 49.47L220.22 49.38L220.66 49.3L221.11 49.22L221.58 49.13L222.07 49.05L222.57 48.96L223.09 48.88L223.63 48.79L224.18 48.7L224.75 48.61L225.34 48.52L225.95 48.43L226.58 48.33L227.23 48.24L227.9 48.14L228.59 48.04L228.91 47.99L229.23 47.94L229.55 47.89L229.86 47.85L230.18 47.8L230.5 47.75L230.81 47.7L231.12 47.65L231.43 47.6L231.73 47.55L232.04 47.5L232.34 47.45L232.63 47.4L232.93 47.35L233.21 47.31L233.5 47.26L233.77 47.21L234.05 47.16L234.31 47.12L234.58 47.07L234.83 47.03L235.08 46.98L235.32 46.94L235.56 46.9L235.78 46.85L236 46.81L236.22 46.77L236.42 46.73L236.61 46.7L236.8 46.66L236.98 46.63L237.15 46.59L237.3 46.56L237.45 46.53L237.59 46.5L237.71 46.47L237.83 46.44L237.93 46.42L238.02 46.4L238.1 46.38L238.28 46.32L238.46 46.26L238.63 46.2L238.8 46.13L238.97 46.06L239.14 45.98L239.3 45.9L239.46 45.82L239.62 45.73L239.77 45.64L239.93 45.55L240.08 45.45L240.22 45.35L240.36 45.25L240.5 45.15L240.64 45.04L240.77 44.93L240.9 44.81L241.03 44.7L241.15 44.58L241.27 44.46L241.39 44.34L241.5 44.21L241.6 44.08L241.7 43.96L241.8 43.82L241.9 43.69L241.99 43.56L242.07 43.42L242.15 43.28L242.23 43.14L242.3 43L242.36 42.86L242.43 42.72L242.48 42.57L242.53 42.43L242.58 42.28L242.62 42.14L242.65 41.99L242.68 41.84L242.76 41.41L242.81 40.98L242.84 40.56L242.86 40.15L242.85 39.75L242.82 39.36L242.78 38.98L242.71 38.61L242.63 38.25L242.52 37.9L242.4 37.56L242.25 37.23L242.09 36.91L241.91 36.6L241.71 36.31L241.49 36.02L241.26 35.74L241 35.47L240.73 35.22L240.44 34.97L240.13 34.74L239.8 34.52L239.46 34.31L239.1 34.11L238.72 33.92L238.33 33.74L237.91 33.58L237.48 33.42L237.04 33.28L236.57 33.16L236.09 33.04L235.6 32.93L235.09 32.84L234.56 32.76L234.01 32.69L233.45 32.64L232.88 32.6L232.29 32.57L231.68 32.55L231.06 32.55L230.55 32.56L230.05 32.58L229.56 32.6L229.08 32.64L228.61 32.69L228.15 32.75L227.7 32.82L227.26 32.9L226.83 32.99L226.42 33.08L226.01 33.19L225.61 33.31L225.23 33.44L224.85 33.57L224.48 33.72L224.13 33.88L223.79 34.05L223.45 34.22L223.13 34.41L222.82 34.6L222.52 34.81L222.23 35.02L221.95 35.25L221.68 35.48L221.42 35.72L221.18 35.98L220.94 36.24L220.72 36.51L220.5 36.79L220.3 37.08L220.11 37.38L219.93 37.69L219.76 38.01L219.6 38.34L219.45 38.67L219.32 39.02L219.19 39.37L219.08 39.74L218.98 40.11L218.89 40.5L218.58 41.98L205.65 41.98L205.65 40.5L205.65 40.36L205.66 40.21L205.67 40.06L205.68 39.9L205.7 39.73L205.72 39.55L205.74 39.37L205.77 39.19L205.8 39L205.84 38.8L205.88 38.6L205.92 38.4L205.97 38.19L206.01 37.98L206.06 37.77L206.12 37.55L206.17 37.33L206.23 37.11L206.29 36.89L206.35 36.66L206.42 36.44L206.49 36.21L206.56 35.99L206.63 35.76L206.7 35.53L206.77 35.31L206.85 35.09L206.93 34.87L207.01 34.65L207.09 34.43L207.17 34.21L207.25 34L207.33 33.79L207.42 33.59L207.5 33.39L207.59 33.19L207.67 33L207.76 32.81L207.85 32.63L207.94 32.46L208.13 32.1L208.33 31.74L208.54 31.39L208.76 31.04L208.99 30.7L209.24 30.37L209.49 30.04L209.75 29.71L210.02 29.39L210.3 29.08L210.6 28.77L210.9 28.46L211.21 28.16L211.53 27.87L211.86 27.58L212.2 27.3L212.55 27.03L212.91 26.76L213.27 26.49L213.65 26.24L214.03 25.98L214.43 25.74L214.83 25.5L215.24 25.26L215.66 25.04L216.09 24.82L216.53 24.6L216.97 24.39L217.42 24.19L217.89 23.99L218.36 23.8L218.83 23.62L219.32 23.45L219.81 23.28L220.31 23.11L220.82 22.96L221.34 22.81L221.86 22.67L222.39 22.53L222.93 22.4L223.26 22.33L223.62 22.27L224 22.21L224.4 22.16L224.83 22.11L225.27 22.07L225.74 22.03L226.22 21.99L226.72 21.96L227.23 21.93L227.76 21.91L228.3 21.9L228.85 21.88L229.41 21.87L229.97 21.87L230.54 21.87L231.12 21.88L231.7 21.88L232.29 21.9L232.87 21.91L233.45 21.94L234.03 21.96L234.61 21.99L235.18 22.02L235.75 22.06L236.3 22.1L236.85 22.15L237.39 22.2L237.92 22.25L238.43 22.31L238.93 22.37L239.41 22.43L239.87 22.5L240.32 22.57L240.74 22.65L241.14 22.73L241.52 22.81L241.88 22.89L242.2 22.98L242.5 23.08L242.8 23.17L243.09 23.28L243.38 23.38L243.68 23.5L243.97 23.61L244.26 23.73L244.55 23.86L244.84 23.99L245.13 24.13L245.42 24.26L245.7 24.41L245.98 24.55L246.27 24.7L246.54 24.86L246.82 25.02L247.09 25.18L247.36 25.34L247.63 25.51L247.9 25.68L248.16 25.85L248.41 26.02L248.66 26.2L248.91 26.38L249.16 26.56L249.4 26.74L249.63 26.93L249.86 27.12L250.08 27.3L250.3 27.49L250.52 27.69L250.72 27.88L250.92 28.07L251.12 28.26L251.31 28.46L251.49 28.65L251.66 28.85L251.83 29.04L251.99 29.24L252.15 29.44L252.29 29.63L252.5 29.92L252.7 30.2L252.88 30.47L253.06 30.73L253.23 30.99L253.39 31.25L253.54 31.51L253.68 31.77L253.81 32.03L253.94 32.3L254.05 32.58L254.17 32.87L254.27 33.17L254.37 33.48L254.46 33.82L254.54 34.17L254.62 34.55L254.69 34.94L254.76 35.37L254.82 35.82L254.87 36.3L254.93 36.82L254.97 37.37L255.02 37.95L255.06 38.58L255.09 39.25L255.13 39.95L255.16 40.71L255.18 41.51L255.21 42.36L255.23 43.27L255.25 44.23L255.27 45.24L255.29 46.31L255.31 47.45L255.32 48.64L255.34 49.9L255.36 51.23L255.37 52.63L255.39 54.1L255.4 54.86L255.4 55.62L255.41 56.37L255.42 57.11L255.43 57.84L255.44 58.57L255.45 59.27L255.46 59.97L255.47 60.66L255.49 61.33L255.5 61.99L255.51 62.64L255.53 63.27L255.54 63.89L255.55 64.49L255.57 65.08L255.58 65.65L255.6 66.2L255.61 66.74L255.63 67.26L255.65 67.76L255.66 68.24L255.68 68.7L255.7 69.14L255.71 69.56L255.73 69.96L255.75 70.34L255.76 70.7L255.78 71.03L255.8 71.34L255.82 71.62L255.83 71.89L255.85 72.12L255.87 72.34L255.89 72.52L255.9 72.68L255.92 72.81L255.94 72.92L255.96 72.99L255.97 73.04L256 73.1L256.03 73.15L256.06 73.19L256.09 73.24L256.13 73.28L256.17 73.33L256.21 73.36L256.26 73.4L256.31 73.44L256.36 73.47L256.42 73.5L256.48 73.53L256.55 73.56L256.62 73.59L256.7 73.61L256.78 73.64L256.87 73.66L256.97 73.68L257.07 73.7L257.18 73.72L257.3 73.73L257.42 73.75L257.55 73.76L257.7 73.77L257.85 73.78L258 73.79L258.17 73.8L258.35 73.81L258.53 73.82L258.73 73.83L258.94 73.83L259.16 73.84L259.38 73.84L259.62 73.84L259.88 73.85L260.14 73.85L260.41 73.85L260.7 73.85L261 73.85L261.31 73.85L266.25 73.85L266.25 23.12L278.82 23.12L278.82 31.79L280.08 30.03L280.28 29.77L280.48 29.5L280.69 29.24L280.9 28.98L281.12 28.73L281.34 28.48L281.57 28.23L281.8 27.99L282.03 27.75L282.27 27.51L282.52 27.28L282.77 27.05L283.02 26.83L283.27 26.6L283.54 26.39L283.8 26.17L284.07 25.97L284.34 25.76L284.62 25.56L284.9 25.37L285.18 25.17L285.46 24.99L285.75 24.81L286.05 24.63L286.34 24.45L286.64 24.29L286.95 24.12L287.25 23.96L287.56 23.81L287.87 23.66L288.18 23.51L288.5 23.37L288.82 23.24L289.14 23.11L289.47 22.99L289.79 22.87L290.12 22.76L290.46 22.65L290.79 22.55L291.12 22.45L291.41 22.37L291.7 22.3L292.01 22.23L292.33 22.17L292.67 22.11L293.01 22.06L293.36 22.01L293.72 21.97L294.09 21.93L294.47 21.9L294.86 21.87L295.25 21.85L295.64 21.83L296.05 21.81L296.45 21.81L296.86 21.8L297.27 21.8L297.69 21.81ZM241.11 54.1L240.85 54.25L240.55 54.4L240.2 54.54L239.79 54.68L239.32 54.83L238.78 54.97L238.16 55.12L237.47 55.27L236.68 55.43L235.81 55.59L234.83 55.76L233.75 55.94L232.55 56.14L231.24 56.34L230.52 56.45L229.8 56.57L229.07 56.69L228.36 56.81L227.66 56.93L226.97 57.06L226.31 57.18L225.69 57.31L225.1 57.43L224.56 57.55L224.07 57.66L223.64 57.77L223.27 57.87L222.98 57.96L221.75 58.46L220.64 59.1L219.65 59.86L218.79 60.72L218.07 61.66L217.48 62.67L217.04 63.72L216.75 64.8L216.62 65.89L216.66 66.97L216.86 68.02L217.25 69.02L217.82 69.95L218.58 70.8L219.1 71.28L219.6 71.7L220.1 72.08L220.59 72.4L221.1 72.68L221.62 72.91L222.18 73.1L222.78 73.26L223.43 73.39L224.15 73.48L224.94 73.55L225.82 73.59L226.79 73.62L227.87 73.63L228.76 73.62L229.55 73.62L230.25 73.6L230.88 73.58L231.44 73.54L231.94 73.49L232.4 73.43L232.82 73.35L233.23 73.26L233.62 73.14L234.01 73.01L234.4 72.85L234.82 72.67L235.28 72.46L235.87 72.17L236.43 71.86L236.96 71.54L237.47 71.22L237.95 70.87L238.4 70.52L238.82 70.14L239.22 69.75L239.6 69.34L239.96 68.91L240.29 68.46L240.6 67.99L240.89 67.5L241.16 66.98L241.31 66.68L241.44 66.38L241.56 66.07L241.66 65.75L241.74 65.4L241.81 65.01L241.86 64.58L241.9 64.09L241.93 63.54L241.94 62.92L241.95 62.21L241.95 61.41L241.94 60.5L241.92 59.48L241.89 58.47L241.86 57.58L241.84 56.81L241.8 56.16L241.77 55.6L241.73 55.14L241.69 54.77L241.63 54.48L241.57 54.27L241.5 54.13L241.43 54.05L241.33 54.02L241.23 54.04L241.11 54.1Z" id="b1pJAOs2hL"></path><path d="M578.43 83.38L578.43 75.52L577.62 76.87L577.46 77.13L577.29 77.38L577.11 77.63L576.92 77.88L576.73 78.13L576.52 78.37L576.31 78.61L576.09 78.85L575.87 79.09L575.64 79.32L575.4 79.55L575.15 79.78L574.9 80.01L574.64 80.23L574.38 80.44L574.11 80.66L573.84 80.87L573.56 81.07L573.27 81.27L572.98 81.47L572.69 81.66L572.39 81.85L572.08 82.04L571.78 82.22L571.47 82.39L571.15 82.56L570.83 82.72L570.51 82.88L570.19 83.04L569.86 83.18L569.53 83.33L569.2 83.46L568.87 83.59L568.53 83.72L568.19 83.83L567.86 83.94L567.52 84.05L567.17 84.15L566.83 84.24L566.49 84.32L566.25 84.37L565.99 84.42L565.73 84.47L565.45 84.51L565.15 84.55L564.85 84.59L564.53 84.62L564.21 84.65L563.87 84.68L563.53 84.7L563.18 84.72L562.83 84.74L562.46 84.76L562.09 84.77L561.72 84.78L561.34 84.78L560.96 84.79L560.58 84.79L560.2 84.78L559.81 84.78L559.42 84.77L559.04 84.76L558.66 84.74L558.27 84.72L557.9 84.7L557.52 84.68L557.15 84.65L556.78 84.62L556.42 84.59L556.07 84.56L555.73 84.52L555.39 84.48L555.06 84.43L554.74 84.39L554.43 84.34L554.13 84.29L553.85 84.23L553.57 84.18L553.31 84.12L553.06 84.05L552.39 83.87L551.72 83.67L551.06 83.45L550.42 83.22L549.79 82.97L549.16 82.7L548.55 82.43L547.95 82.13L547.37 81.82L546.79 81.5L546.22 81.16L545.67 80.8L545.12 80.43L544.59 80.04L544.07 79.64L543.56 79.22L543.06 78.79L542.58 78.34L542.1 77.88L541.64 77.4L541.19 76.91L540.75 76.4L540.32 75.88L539.9 75.34L539.49 74.78L539.1 74.22L538.72 73.63L538.34 73.03L537.98 72.42L537.64 71.79L537.3 71.14L536.97 70.48L536.66 69.81L536.36 69.12L536.07 68.41L535.79 67.69L535.52 66.96L535.27 66.2L535.02 65.44L534.79 64.66L534.73 64.43L534.66 64.21L534.6 64L534.55 63.78L534.49 63.57L534.44 63.37L534.39 63.16L534.34 62.96L534.3 62.76L534.25 62.55L534.21 62.35L534.17 62.14L534.14 61.94L534.1 61.73L534.07 61.51L534.04 61.29L534.01 61.07L533.99 60.84L533.96 60.61L533.94 60.37L533.92 60.12L533.9 59.86L533.88 59.59L533.87 59.32L533.85 59.03L533.84 58.74L533.82 58.43L533.81 58.11L533.8 57.78L533.8 57.43L533.79 57.07L533.78 56.69L533.78 56.3L533.77 55.9L533.77 55.47L533.77 55.03L533.76 54.57L533.76 54.09L533.76 53.6L533.76 53.08L533.76 52.6L533.76 52.14L533.76 51.69L533.77 51.26L533.77 50.84L533.77 50.44L533.78 50.05L533.78 49.67L533.79 49.3L533.8 48.95L533.81 48.61L533.82 48.28L533.83 47.96L533.84 47.65L533.85 47.35L533.87 47.06L533.88 46.78L533.9 46.5L533.92 46.24L533.93 45.98L533.95 45.73L533.98 45.49L534 45.26L534.02 45.03L534.05 44.8L534.07 44.59L534.1 44.37L534.13 44.16L534.16 43.96L534.2 43.76L534.23 43.56L534.27 43.37L534.3 43.17L534.34 42.98L534.38 42.79L534.43 42.6L534.47 42.42L534.52 42.23L534.56 42.04L534.61 41.85L534.81 41.12L535.02 40.4L535.25 39.69L535.49 38.99L535.74 38.3L536.01 37.63L536.29 36.96L536.58 36.31L536.88 35.67L537.2 35.04L537.53 34.43L537.87 33.82L538.23 33.23L538.59 32.66L538.97 32.09L539.36 31.54L539.76 31L540.17 30.47L540.6 29.96L541.03 29.46L541.48 28.98L541.94 28.51L542.41 28.05L542.89 27.61L543.37 27.18L543.88 26.77L544.39 26.37L544.91 25.99L545.44 25.62L545.98 25.26L546.53 24.92L547.09 24.6L547.66 24.29L548.24 24L548.82 23.73L549.42 23.47L550.03 23.23L550.64 23L551.27 22.79L551.9 22.59L552.14 22.53L552.4 22.46L552.67 22.4L552.96 22.34L553.25 22.29L553.56 22.23L553.87 22.19L554.2 22.14L554.53 22.1L554.87 22.06L555.22 22.03L555.57 22L555.93 21.97L556.3 21.95L556.67 21.93L557.05 21.92L557.43 21.9L557.81 21.89L558.19 21.89L558.58 21.89L558.96 21.89L559.35 21.89L559.73 21.9L560.12 21.92L560.5 21.93L560.88 21.95L561.26 21.97L561.63 22L562 22.03L562.36 22.06L562.72 22.1L563.08 22.14L563.42 22.19L563.76 22.23L564.09 22.29L564.41 22.34L564.72 22.4L565.02 22.46L565.31 22.53L565.59 22.59L565.89 22.67L566.18 22.76L566.47 22.84L566.76 22.93L567.05 23.03L567.34 23.13L567.63 23.23L567.91 23.33L568.2 23.44L568.48 23.56L568.75 23.67L569.03 23.79L569.31 23.92L569.58 24.04L569.85 24.17L570.12 24.31L570.38 24.44L570.65 24.58L570.91 24.73L571.17 24.87L571.42 25.02L571.68 25.18L571.93 25.33L572.18 25.49L572.42 25.65L572.67 25.82L572.91 25.99L573.14 26.16L573.38 26.33L573.61 26.51L573.84 26.69L574.06 26.87L574.28 27.06L574.5 27.24L574.71 27.44L574.93 27.63L575.13 27.83L575.34 28.02L575.54 28.23L575.74 28.43L577.98 30.81L577.98 0.78L591 0.78L591 83.38L578.43 83.38ZM560.55 32.76L560.19 32.78L559.86 32.8L559.54 32.83L559.24 32.87L558.94 32.92L558.65 32.98L558.37 33.04L558.09 33.12L557.81 33.21L557.52 33.31L557.24 33.42L556.94 33.54L556.63 33.68L556.32 33.83L555.98 33.99L555.63 34.16L555.26 34.36L554.59 34.74L553.94 35.17L553.3 35.66L552.7 36.2L552.11 36.79L551.55 37.43L551.01 38.12L550.51 38.85L550.02 39.62L549.57 40.44L549.14 41.29L548.75 42.18L548.38 43.1L548.04 44.06L547.74 45.05L547.47 46.07L547.23 47.12L547.03 48.19L546.86 49.29L546.73 50.41L546.63 51.55L546.57 52.71L546.56 53.88L546.59 55.09L546.66 56.28L546.79 57.44L546.96 58.59L547.17 59.71L547.43 60.8L547.73 61.87L548.06 62.9L548.44 63.91L548.86 64.87L549.31 65.8L549.8 66.69L550.32 67.54L550.88 68.34L551.47 69.1L552.09 69.81L552.74 70.47L553.42 71.08L554.12 71.63L554.85 72.12L555.61 72.55L556.39 72.93L557.2 73.23L557.56 73.35L557.94 73.45L558.35 73.54L558.77 73.62L559.2 73.69L559.65 73.75L560.11 73.8L560.58 73.84L561.06 73.88L561.54 73.9L562.03 73.91L562.51 73.91L563 73.9L563.48 73.88L563.95 73.84L564.42 73.8L564.88 73.75L565.33 73.69L565.77 73.62L566.19 73.54L566.59 73.45L566.98 73.35L567.34 73.23L567.91 73.02L568.47 72.77L569.02 72.47L569.57 72.15L570.11 71.78L570.65 71.38L571.17 70.95L571.68 70.49L572.18 69.99L572.67 69.47L573.14 68.92L573.59 68.35L574.03 67.75L574.46 67.12L574.86 66.48L575.25 65.81L575.61 65.13L575.95 64.43L576.27 63.71L576.57 62.98L576.84 62.23L577.09 61.48L577.31 60.71L577.42 60.23L577.52 59.7L577.61 59.13L577.69 58.52L577.77 57.87L577.83 57.19L577.88 56.48L577.92 55.75L577.95 55.01L577.97 54.25L577.98 53.49L577.98 52.72L577.97 51.96L577.95 51.2L577.92 50.46L577.88 49.74L577.83 49.03L577.77 48.35L577.69 47.71L577.61 47.1L577.52 46.53L577.42 46.01L577.31 45.53L577.11 44.83L576.91 44.15L576.69 43.48L576.45 42.84L576.2 42.21L575.94 41.6L575.67 41.02L575.38 40.45L575.08 39.9L574.76 39.37L574.43 38.86L574.09 38.37L573.73 37.9L573.36 37.45L572.97 37.02L572.57 36.6L572.15 36.21L571.73 35.83L571.28 35.47L570.82 35.13L570.35 34.81L569.86 34.51L569.36 34.22L569.1 34.08L568.86 33.95L568.62 33.83L568.39 33.72L568.16 33.61L567.94 33.52L567.72 33.43L567.5 33.35L567.28 33.28L567.06 33.22L566.83 33.16L566.6 33.11L566.36 33.06L566.11 33.02L565.85 32.98L565.58 32.95L565.29 32.92L564.98 32.89L564.66 32.86L564.32 32.84L563.96 32.82L563.57 32.8L563.17 32.79L562.66 32.77L562.18 32.76L561.73 32.75L561.31 32.75L560.92 32.75L560.55 32.76Z" id="b2gIBO6Q0x"></path><path d="M505.71 21.91L506.12 21.92L506.54 21.94L506.95 21.96L507.37 21.98L507.78 22.01L508.19 22.05L508.6 22.08L509 22.13L509.4 22.17L509.79 22.22L510.18 22.28L510.56 22.34L510.93 22.41L511.29 22.47L511.65 22.55L511.99 22.63L512.33 22.71L512.65 22.79L512.97 22.88L513.27 22.98L513.55 23.08L513.83 23.18L514.2 23.33L514.57 23.48L514.93 23.64L515.29 23.8L515.64 23.97L515.98 24.15L516.32 24.33L516.65 24.52L516.98 24.72L517.3 24.92L517.61 25.12L517.92 25.33L518.22 25.55L518.52 25.78L518.81 26.01L519.09 26.24L519.37 26.48L519.65 26.73L519.91 26.99L520.17 27.25L520.43 27.51L520.68 27.79L520.92 28.06L521.16 28.35L521.39 28.64L521.62 28.94L521.84 29.24L522.06 29.55L522.27 29.87L522.47 30.19L522.67 30.52L522.86 30.86L523.05 31.2L523.23 31.55L523.4 31.9L523.57 32.26L523.74 32.63L523.9 33L524.05 33.39L524.2 33.77L524.27 33.97L524.34 34.16L524.4 34.34L524.47 34.53L524.52 34.71L524.58 34.9L524.63 35.1L524.68 35.3L524.73 35.51L524.77 35.74L524.81 35.98L524.85 36.24L524.89 36.52L524.92 36.82L524.95 37.14L524.98 37.49L525.01 37.87L525.04 38.29L525.06 38.73L525.08 39.21L525.11 39.73L525.13 40.29L525.14 40.89L525.16 41.54L525.18 42.23L525.19 42.97L525.21 43.77L525.22 44.62L525.23 45.53L525.25 46.49L525.26 47.52L525.27 48.61L525.28 49.77L525.29 50.99L525.3 52.29L525.32 53.66L525.33 55.1L525.34 56.62L525.35 58.22L525.37 59.9L525.5 83.38L512.48 83.38L512.35 62.59L512.33 60.88L512.32 59.25L512.31 57.7L512.29 56.23L512.28 54.83L512.26 53.51L512.24 52.26L512.22 51.08L512.2 49.96L512.17 48.9L512.14 47.91L512.11 46.98L512.08 46.1L512.04 45.28L512 44.51L511.96 43.79L511.91 43.11L511.85 42.49L511.79 41.9L511.73 41.35L511.66 40.85L511.58 40.37L511.5 39.94L511.41 39.53L511.32 39.15L511.21 38.8L511.11 38.47L510.99 38.16L510.86 37.87L510.73 37.6L510.59 37.34L510.44 37.1L510.28 36.86L510.11 36.64L509.93 36.41L509.75 36.2L509.55 35.98L509.34 35.76L509.12 35.53L508.89 35.3L508.75 35.16L508.61 35.02L508.47 34.89L508.32 34.77L508.18 34.64L508.03 34.53L507.88 34.41L507.73 34.3L507.57 34.19L507.42 34.09L507.26 33.99L507.1 33.9L506.93 33.8L506.77 33.72L506.6 33.63L506.42 33.55L506.25 33.48L506.07 33.4L505.89 33.33L505.7 33.27L505.51 33.21L505.32 33.15L505.13 33.09L504.93 33.04L504.72 32.99L504.52 32.95L504.31 32.9L504.09 32.87L503.87 32.83L503.65 32.8L503.42 32.77L503.19 32.74L502.95 32.72L502.71 32.7L502.47 32.69L502.22 32.67L501.96 32.66L501.7 32.66L501.44 32.65L501.17 32.65L500.64 32.66L500.12 32.69L499.61 32.73L499.11 32.8L498.62 32.88L498.13 32.98L497.65 33.1L497.18 33.23L496.71 33.38L496.26 33.55L495.82 33.74L495.38 33.94L494.95 34.16L494.54 34.39L494.13 34.64L493.73 34.91L493.35 35.19L492.97 35.49L492.61 35.8L492.25 36.13L491.91 36.47L491.57 36.83L491.25 37.2L490.94 37.59L490.65 37.99L490.36 38.4L490.09 38.83L489.83 39.27L489.58 39.72L489.34 40.19L489.12 40.67L488.91 41.16L488.72 41.67L488.54 42.18L488.37 42.71L488.21 43.25L488.07 43.81L487.95 44.37L487.84 44.95L487.74 45.53L487.73 45.68L487.71 45.85L487.69 46.04L487.68 46.26L487.66 46.51L487.64 46.78L487.63 47.08L487.61 47.4L487.6 47.74L487.58 48.1L487.56 48.49L487.55 48.89L487.53 49.32L487.52 49.76L487.5 50.23L487.49 50.71L487.48 51.21L487.46 51.72L487.45 52.25L487.44 52.8L487.42 53.36L487.41 53.94L487.4 54.53L487.39 55.13L487.38 55.75L487.37 56.37L487.36 57.01L487.35 57.65L487.34 58.31L487.33 58.98L487.33 59.65L487.32 60.33L487.32 61.02L487.31 61.71L487.31 62.41L487.3 63.11L487.3 63.82L487.3 64.53L487.3 65.24L487.3 65.96L487.3 83.29L484.06 83.56L483.38 83.61L482.69 83.66L481.98 83.71L481.26 83.76L480.54 83.81L479.8 83.86L479.06 83.91L478.31 83.96L477.56 84.01L476.81 84.05L476.06 84.1L475.3 84.14L474.55 84.19L473.8 84.23L473.06 84.28L472.32 84.32L471.58 84.36L470.86 84.4L470.15 84.44L469.44 84.47L468.76 84.51L468.08 84.54L467.42 84.58L466.78 84.61L466.15 84.64L465.55 84.66L464.96 84.69L464.4 84.71L463.86 84.73L463.35 84.75L462.86 84.77L462.41 84.78L461.98 84.8L461.58 84.81L461.21 84.82L460.88 84.82L460.58 84.82L460.32 84.82L460.1 84.82L459.91 84.82L459.63 84.8L459.35 84.78L459.08 84.75L458.82 84.72L458.56 84.69L458.3 84.65L458.05 84.61L457.8 84.56L457.56 84.5L457.32 84.44L457.09 84.38L456.86 84.31L456.64 84.24L456.42 84.16L456.2 84.08L455.99 83.99L455.79 83.9L455.59 83.8L455.39 83.7L455.2 83.59L455.01 83.47L454.83 83.36L454.65 83.23L454.47 83.11L454.3 82.97L454.13 82.84L453.97 82.69L453.81 82.55L453.66 82.39L453.51 82.23L453.36 82.07L453.22 81.9L453.08 81.73L452.95 81.55L452.82 81.37L452.7 81.18L452.57 80.98L452.46 80.79L452.34 80.58L452.23 80.37L452.15 80.21L452.07 80.05L451.99 79.9L451.92 79.76L451.85 79.63L451.78 79.51L451.71 79.39L451.65 79.28L451.6 79.18L451.54 79.08L451.49 78.99L451.44 78.91L451.39 78.83L451.34 78.77L451.3 78.7L451.25 78.65L451.21 78.6L451.17 78.56L451.13 78.52L451.09 78.49L451.06 78.46L451.02 78.44L450.98 78.43L450.95 78.42L450.91 78.41L450.87 78.41L450.84 78.42L450.8 78.43L450.76 78.45L450.72 78.47L450.69 78.49L450.64 78.52L450.6 78.55L450.56 78.59L450.51 78.63L450.47 78.67L450.42 78.72L450.37 78.78L450.31 78.83L450.26 78.89L450.16 79L450.04 79.11L449.91 79.22L449.76 79.34L449.6 79.46L449.43 79.59L449.24 79.72L449.05 79.85L448.84 79.98L448.62 80.12L448.39 80.25L448.15 80.39L447.9 80.53L447.65 80.68L447.38 80.82L447.11 80.96L446.83 81.1L446.55 81.25L446.26 81.39L445.96 81.53L445.66 81.68L445.36 81.82L445.05 81.96L444.74 82.09L444.42 82.23L444.11 82.36L443.79 82.5L443.48 82.62L443.16 82.75L442.85 82.87L442.53 82.99L442.22 83.11L441.91 83.22L441.6 83.33L441.3 83.43L441 83.53L440.7 83.63L440.41 83.71L440.12 83.8L439.84 83.87L439.48 83.97L439.11 84.05L438.73 84.14L438.34 84.21L437.95 84.29L437.55 84.35L437.14 84.42L436.74 84.48L436.32 84.53L435.9 84.58L435.48 84.63L435.06 84.67L434.63 84.7L434.21 84.73L433.78 84.76L433.35 84.78L432.92 84.8L432.49 84.81L432.06 84.82L431.63 84.82L431.21 84.82L430.78 84.81L430.36 84.8L429.95 84.79L429.53 84.77L429.12 84.74L428.72 84.71L428.32 84.68L427.93 84.64L427.54 84.6L427.16 84.55L426.79 84.5L426.42 84.44L426.06 84.38L425.72 84.32L425.38 84.25L425.05 84.17L424.73 84.09L424.43 84.01L424.13 83.92L423.57 83.73L423.02 83.53L422.48 83.33L421.95 83.11L421.44 82.88L420.94 82.64L420.45 82.4L419.97 82.14L419.51 81.87L419.05 81.6L418.61 81.31L418.19 81.01L417.77 80.71L417.37 80.39L416.98 80.07L416.61 79.74L416.25 79.39L415.9 79.04L415.56 78.68L415.24 78.31L414.93 77.93L414.63 77.54L414.34 77.14L414.07 76.73L413.81 76.32L413.57 75.89L413.34 75.46L413.12 75.02L412.91 74.57L412.72 74.11L412.54 73.64L412.38 73.16L412.23 72.68L412.09 72.19L411.97 71.69L411.86 71.18L411.76 70.66L411.68 70.13L411.61 69.6L411.56 69.06L411.52 68.46L411.49 67.87L411.48 67.28L411.48 66.7L411.49 66.12L411.52 65.56L411.57 65L411.63 64.45L411.7 63.9L411.79 63.36L411.89 62.84L412.01 62.31L412.14 61.8L412.28 61.3L412.44 60.8L412.61 60.31L412.79 59.83L412.99 59.36L413.2 58.9L413.43 58.45L413.67 58.01L413.92 57.58L414.18 57.16L414.46 56.75L414.75 56.35L415.05 55.96L415.37 55.58L415.7 55.21L416.04 54.85L416.39 54.5L416.76 54.17L417.13 53.84L417.52 53.53L417.92 53.23L418.34 52.94L418.76 52.66L419.2 52.4L419.65 52.15L420.11 51.91L420.58 51.69L420.81 51.58L421.05 51.48L421.28 51.38L421.52 51.28L421.77 51.19L422.01 51.09L422.27 51L422.53 50.91L422.79 50.82L423.06 50.73L423.34 50.65L423.63 50.56L423.92 50.47L424.22 50.39L424.53 50.31L424.85 50.22L425.19 50.14L425.53 50.06L425.88 49.98L426.24 49.89L426.62 49.81L427 49.73L427.4 49.65L427.81 49.57L428.24 49.49L428.68 49.4L429.14 49.32L429.61 49.24L430.09 49.15L430.6 49.07L431.12 48.98L431.65 48.89L432.2 48.8L432.78 48.71L433.37 48.62L433.98 48.53L434.6 48.43L435.25 48.34L435.92 48.24L436.61 48.14L436.93 48.09L437.25 48.04L437.57 48L437.89 47.95L438.2 47.9L438.52 47.85L438.83 47.8L439.14 47.75L439.45 47.7L439.76 47.65L440.06 47.6L440.36 47.55L440.66 47.5L440.95 47.46L441.24 47.41L441.52 47.36L441.8 47.31L442.07 47.27L442.34 47.22L442.6 47.17L442.85 47.13L443.1 47.08L443.34 47.04L443.58 47L443.81 46.96L444.03 46.91L444.24 46.88L444.44 46.84L444.64 46.8L444.82 46.76L445 46.73L445.17 46.69L445.33 46.66L445.47 46.63L445.61 46.6L445.74 46.57L445.85 46.55L445.96 46.52L446.05 46.5L446.13 46.48L446.31 46.42L446.48 46.36L446.65 46.3L446.82 46.23L446.99 46.16L447.16 46.08L447.32 46L447.48 45.92L447.64 45.83L447.8 45.74L447.95 45.65L448.1 45.55L448.25 45.46L448.39 45.35L448.53 45.25L448.66 45.14L448.8 45.03L448.93 44.92L449.05 44.8L449.18 44.68L449.29 44.56L449.41 44.44L449.52 44.31L449.63 44.19L449.73 44.06L449.83 43.93L449.92 43.79L450.01 43.66L450.09 43.52L450.18 43.38L450.25 43.24L450.32 43.1L450.39 42.96L450.45 42.82L450.51 42.68L450.56 42.53L450.6 42.39L450.64 42.24L450.68 42.09L450.71 41.94L450.78 41.51L450.83 41.08L450.87 40.66L450.88 40.25L450.87 39.85L450.85 39.46L450.8 39.08L450.74 38.71L450.65 38.35L450.54 38L450.42 37.66L450.28 37.33L450.12 37.01L449.93 36.71L449.74 36.41L449.52 36.12L449.28 35.84L449.03 35.57L448.75 35.32L448.46 35.07L448.15 34.84L447.83 34.62L447.48 34.41L447.12 34.21L446.74 34.02L446.35 33.84L445.94 33.68L445.51 33.53L445.06 33.39L444.6 33.26L444.12 33.14L443.62 33.04L443.11 32.94L442.58 32.86L442.04 32.8L441.48 32.74L440.9 32.7L440.31 32.67L439.7 32.65L439.08 32.65L438.57 32.66L438.07 32.68L437.58 32.71L437.1 32.74L436.63 32.79L436.17 32.85L435.72 32.92L435.28 33L434.86 33.09L434.44 33.18L434.03 33.29L433.64 33.41L433.25 33.54L432.87 33.68L432.51 33.82L432.15 33.98L431.81 34.15L431.48 34.32L431.15 34.51L430.84 34.7L430.54 34.91L430.25 35.12L429.97 35.35L429.7 35.58L429.45 35.83L429.2 36.08L428.96 36.34L428.74 36.61L428.52 36.89L428.32 37.18L428.13 37.48L427.95 37.79L427.78 38.11L427.62 38.44L427.48 38.77L427.34 39.12L427.22 39.48L427.11 39.84L427 40.21L426.91 40.6L426.6 42.08L413.67 42.08L413.67 40.6L413.67 40.46L413.68 40.31L413.69 40.16L413.7 40L413.72 39.83L413.74 39.66L413.77 39.48L413.8 39.29L413.83 39.1L413.86 38.91L413.9 38.71L413.94 38.5L413.99 38.29L414.04 38.08L414.09 37.87L414.14 37.65L414.2 37.43L414.25 37.21L414.31 36.99L414.38 36.76L414.44 36.54L414.51 36.31L414.58 36.09L414.65 35.86L414.72 35.64L414.8 35.41L414.87 35.19L414.95 34.97L415.03 34.75L415.11 34.53L415.19 34.31L415.27 34.1L415.36 33.89L415.44 33.69L415.53 33.49L415.61 33.29L415.7 33.1L415.79 32.92L415.87 32.74L415.96 32.56L416.15 32.2L416.35 31.84L416.56 31.49L416.78 31.15L417.02 30.8L417.26 30.47L417.51 30.14L417.77 29.81L418.05 29.49L418.33 29.18L418.62 28.87L418.92 28.56L419.23 28.27L419.55 27.97L419.88 27.69L420.22 27.4L420.57 27.13L420.93 26.86L421.3 26.6L421.67 26.34L422.06 26.09L422.45 25.84L422.85 25.6L423.26 25.37L423.68 25.14L424.11 24.92L424.55 24.7L424.99 24.49L425.45 24.29L425.91 24.09L426.38 23.91L426.86 23.72L427.34 23.55L427.84 23.38L428.34 23.21L428.84 23.06L429.36 22.91L429.88 22.77L430.42 22.63L430.95 22.5L431.28 22.44L431.64 22.37L432.02 22.31L432.42 22.26L432.85 22.21L433.3 22.17L433.76 22.13L434.24 22.09L434.74 22.06L435.26 22.04L435.78 22.01L436.32 22L436.87 21.98L437.43 21.98L438 21.97L438.57 21.97L439.15 21.98L439.73 21.99L440.31 22L440.89 22.02L441.48 22.04L442.06 22.06L442.63 22.09L443.2 22.13L443.77 22.16L444.33 22.21L444.88 22.25L445.41 22.3L445.94 22.35L446.45 22.41L446.95 22.47L447.43 22.53L447.9 22.6L448.34 22.67L448.76 22.75L449.17 22.83L449.55 22.91L449.9 23L450.23 23.09L450.53 23.18L450.82 23.27L451.11 23.38L451.41 23.48L451.7 23.6L451.99 23.71L452.28 23.84L452.57 23.96L452.86 24.09L453.15 24.23L453.44 24.37L453.72 24.51L454.01 24.66L454.29 24.81L454.57 24.96L454.84 25.12L455.12 25.28L455.39 25.44L455.65 25.61L455.92 25.78L456.18 25.95L456.44 26.12L456.69 26.3L456.94 26.48L457.18 26.66L457.42 26.85L457.65 27.03L457.88 27.22L458.11 27.41L458.33 27.6L458.54 27.79L458.75 27.98L458.95 28.17L459.14 28.37L459.33 28.56L459.51 28.75L459.69 28.95L459.86 29.15L460.02 29.34L460.17 29.54L460.31 29.73L460.52 30.02L460.72 30.3L460.91 30.57L461.08 30.84L461.25 31.09L461.41 31.35L461.56 31.61L461.7 31.87L461.83 32.13L461.96 32.4L462.08 32.68L462.19 32.97L462.29 33.27L462.39 33.58L462.48 33.92L462.56 34.27L462.64 34.65L462.71 35.05L462.78 35.47L462.84 35.92L462.9 36.4L462.95 36.92L463 37.47L463.04 38.06L463.08 38.68L463.12 39.35L463.15 40.06L463.18 40.81L463.21 41.61L463.23 42.47L463.25 43.37L463.28 44.33L463.3 45.34L463.31 46.42L463.33 47.55L463.35 48.74L463.36 50.01L463.38 51.33L463.4 52.73L463.41 54.2L463.42 54.97L463.43 55.72L463.44 56.47L463.44 57.22L463.45 57.95L463.46 58.67L463.47 59.38L463.49 60.07L463.5 60.76L463.51 61.43L463.52 62.09L463.54 62.74L463.55 63.37L463.56 63.99L463.58 64.59L463.59 65.18L463.61 65.75L463.62 66.3L463.64 66.84L463.65 67.36L463.67 67.86L463.69 68.34L463.7 68.8L463.72 69.24L463.74 69.66L463.75 70.06L463.77 70.44L463.79 70.8L463.81 71.13L463.82 71.44L463.84 71.73L463.86 71.99L463.88 72.23L463.89 72.44L463.91 72.62L463.93 72.78L463.94 72.91L463.96 73.02L463.98 73.1L464 73.14L464.02 73.2L464.05 73.25L464.08 73.3L464.12 73.34L464.15 73.38L464.19 73.43L464.23 73.47L464.28 73.5L464.33 73.54L464.38 73.57L464.44 73.61L464.5 73.64L464.57 73.66L464.64 73.69L464.72 73.72L464.8 73.74L464.89 73.76L464.99 73.78L465.09 73.8L465.2 73.82L465.32 73.83L465.44 73.85L465.58 73.86L465.72 73.87L465.87 73.89L466.03 73.9L466.19 73.91L466.37 73.91L466.56 73.92L466.75 73.93L466.96 73.93L467.18 73.94L467.41 73.94L467.65 73.94L467.9 73.95L468.16 73.95L468.44 73.95L468.72 73.95L469.03 73.95L469.34 73.95L474.28 73.95L474.28 23.22L486.85 23.22L486.85 31.89L488.1 30.14L488.3 29.87L488.5 29.6L488.71 29.34L488.92 29.09L489.14 28.83L489.36 28.58L489.59 28.33L489.82 28.09L490.06 27.85L490.3 27.61L490.54 27.38L490.79 27.15L491.04 26.93L491.3 26.71L491.56 26.49L491.82 26.28L492.09 26.07L492.36 25.86L492.64 25.66L492.92 25.47L493.2 25.28L493.49 25.09L493.78 24.91L494.07 24.73L494.37 24.56L494.67 24.39L494.97 24.22L495.27 24.06L495.58 23.91L495.89 23.76L496.21 23.62L496.53 23.48L496.84 23.34L497.17 23.21L497.49 23.09L497.82 22.97L498.15 22.86L498.48 22.75L498.81 22.65L499.15 22.55L499.43 22.47L499.73 22.4L500.04 22.33L500.36 22.27L500.69 22.21L501.03 22.16L501.39 22.11L501.75 22.07L502.12 22.03L502.5 22L502.88 21.97L503.27 21.95L503.67 21.93L504.07 21.92L504.48 21.91L504.88 21.9L505.3 21.91L505.71 21.91ZM449.14 54.2L448.88 54.35L448.57 54.5L448.22 54.64L447.81 54.79L447.34 54.93L446.8 55.07L446.18 55.22L445.49 55.37L444.71 55.53L443.83 55.69L442.85 55.86L441.77 56.05L440.57 56.24L439.26 56.44L438.54 56.55L437.82 56.67L437.1 56.79L436.38 56.91L435.68 57.03L435 57.16L434.34 57.29L433.71 57.41L433.13 57.53L432.59 57.65L432.1 57.76L431.66 57.87L431.3 57.97L431 58.06L429.78 58.56L428.67 59.2L427.68 59.96L426.82 60.82L426.09 61.76L425.5 62.77L425.06 63.82L424.77 64.9L424.64 65.99L424.68 67.07L424.89 68.12L425.27 69.12L425.84 70.05L426.6 70.9L427.12 71.38L427.63 71.81L428.12 72.18L428.61 72.5L429.12 72.78L429.64 73.01L430.2 73.21L430.8 73.36L431.46 73.49L432.17 73.58L432.97 73.65L433.84 73.7L434.81 73.72L435.89 73.73L436.78 73.73L437.57 73.72L438.28 73.7L438.9 73.68L439.46 73.64L439.96 73.59L440.42 73.53L440.85 73.45L441.25 73.36L441.64 73.24L442.03 73.11L442.43 72.95L442.85 72.77L443.3 72.56L443.89 72.27L444.45 71.96L444.99 71.65L445.49 71.32L445.97 70.97L446.42 70.62L446.85 70.24L447.25 69.85L447.63 69.44L447.98 69.01L448.31 68.56L448.62 68.09L448.91 67.6L449.18 67.08L449.33 66.78L449.47 66.48L449.58 66.17L449.68 65.85L449.76 65.5L449.83 65.11L449.88 64.68L449.92 64.2L449.95 63.64L449.97 63.02L449.97 62.31L449.97 61.51L449.96 60.6L449.94 59.59L449.92 58.57L449.89 57.69L449.86 56.92L449.83 56.26L449.79 55.7L449.75 55.24L449.71 54.87L449.66 54.59L449.6 54.37L449.53 54.23L449.45 54.15L449.36 54.12L449.25 54.14L449.14 54.2Z" id="bad5cIVZJ"></path><path d="M393.43 0.67L405.83 0.67L405.83 83.71L393.43 83.71L393.43 0.67Z" id="e2z8zz76FI"></path><path d="M141.32 0.87L141.32 0.87L140.76 0.87L140.76 2.03L140.08 3.2L140.1 3.21L118.5 43.06L96.52 83.65L0.71 83.65L1.47 82.17L1.55 82.01L1.69 81.76L1.87 81.41L2.11 80.98L2.39 80.44L2.73 79.82L3.12 79.1L3.56 78.29L4.05 77.38L4.59 76.38L5.18 75.29L5.82 74.1L6.51 72.82L7.25 71.45L8.05 69.99L8.89 68.43L9.78 66.78L10.73 65.03L11.73 63.19L12.77 61.26L13.87 59.23L15.02 57.11L16.22 54.9L17.47 52.6L18.77 50.2L20.12 47.7L21.52 45.12L22.97 42.44L24.47 39.67L26.03 36.8L27.63 33.84L29.29 30.79L30.99 27.64L32.75 24.4L34.56 21.07L36.41 17.64L38.32 14.13L40.28 10.51L42.29 6.81L44.35 3.01L45.7 0.67L99.57 0.76L141.32 0.87Z" id="aHXE4vZgZ"></path><path d="" id="cdrnPY8AE"></path><path d="M148.48 0.68L148.48 0.69L153.37 0.7L153.5 15.64L153.59 30.53L155.97 28.2L156.29 27.88L156.62 27.57L156.94 27.27L157.27 26.98L157.6 26.7L157.94 26.42L158.27 26.16L158.61 25.9L158.95 25.65L159.3 25.41L159.64 25.18L159.99 24.96L160.34 24.75L160.7 24.54L161.06 24.35L161.42 24.16L161.79 23.98L162.16 23.81L162.53 23.64L162.91 23.49L163.29 23.34L163.68 23.2L164.07 23.07L164.47 22.95L164.87 22.83L165.27 22.72L165.68 22.62L166.1 22.53L166.52 22.45L166.94 22.37L167.38 22.3L167.81 22.24L168.26 22.18L168.71 22.14L169.16 22.1L169.62 22.07L170.09 22.04L170.56 22.02L171.05 22.01L171.53 22.01L172.47 22.02L173.4 22.06L174.31 22.13L175.2 22.23L176.08 22.35L176.95 22.5L177.8 22.68L178.64 22.88L179.46 23.11L180.27 23.37L181.06 23.65L181.84 23.96L182.6 24.3L183.35 24.66L184.08 25.05L184.79 25.46L185.49 25.9L186.17 26.37L186.84 26.86L187.49 27.37L188.12 27.92L188.73 28.48L189.33 29.07L189.91 29.69L190.47 30.33L191.02 31L191.55 31.69L192.06 32.41L192.55 33.15L193.02 33.91L193.48 34.7L193.92 35.51L194.34 36.35L194.74 37.21L195.12 38.09L195.48 39L195.83 39.93L196.15 40.89L196.46 41.86L196.74 42.86L196.84 43.26L196.94 43.69L197.03 44.13L197.12 44.59L197.2 45.08L197.27 45.58L197.34 46.1L197.41 46.63L197.47 47.18L197.52 47.74L197.57 48.32L197.62 48.9L197.66 49.5L197.69 50.1L197.72 50.71L197.74 51.33L197.76 51.95L197.77 52.57L197.78 53.2L197.79 53.83L197.78 54.46L197.77 55.09L197.76 55.71L197.74 56.33L197.72 56.95L197.69 57.56L197.66 58.17L197.62 58.76L197.57 59.35L197.52 59.92L197.47 60.48L197.41 61.03L197.34 61.57L197.27 62.08L197.2 62.59L197.12 63.07L197.03 63.53L196.94 63.98L196.84 64.4L196.74 64.8L196.49 65.67L196.23 66.53L195.95 67.37L195.66 68.19L195.35 68.99L195.03 69.77L194.7 70.54L194.35 71.28L193.98 72.01L193.61 72.72L193.22 73.4L192.81 74.07L192.4 74.72L191.96 75.35L191.52 75.97L191.06 76.56L190.59 77.13L190.1 77.68L189.61 78.22L189.09 78.73L188.57 79.22L188.03 79.7L187.48 80.15L186.92 80.59L186.34 81L185.75 81.39L185.15 81.77L184.54 82.12L183.91 82.45L183.27 82.77L182.62 83.06L181.95 83.33L181.28 83.58L180.59 83.81L179.88 84.02L179.17 84.21L178.45 84.38L177.71 84.53L176.96 84.65L176.2 84.76L175.53 84.83L174.85 84.9L174.18 84.94L173.51 84.98L172.84 84.99L172.18 85L171.52 84.99L170.86 84.97L170.2 84.93L169.55 84.88L168.91 84.82L168.26 84.74L167.63 84.66L167 84.55L166.38 84.44L165.77 84.31L165.16 84.17L164.56 84.02L163.97 83.86L163.39 83.69L162.82 83.5L162.26 83.3L161.71 83.09L161.17 82.87L160.65 82.64L160.13 82.4L159.63 82.14L159.14 81.88L158.67 81.6L158.21 81.32L157.76 81.02L157.33 80.72L156.92 80.4L156.52 80.08L156.13 79.75L155.77 79.4L155.42 79.05L155.09 78.69L154.78 78.32L154.49 77.94L153.14 76.1L153.14 83.46L141.71 83.46L141.71 83.37L140.63 83.37L140.63 0.68L141.71 0.68L141.71 0.68L141.97 0.68L148.48 0.68ZM168.17 32.84L167.68 32.86L167.21 32.89L166.74 32.94L166.27 32.99L165.82 33.05L165.38 33.13L164.95 33.22L164.54 33.31L164.15 33.42L163.77 33.54L163.22 33.74L162.68 33.97L162.14 34.24L161.62 34.54L161.11 34.86L160.6 35.22L160.11 35.61L159.63 36.02L159.16 36.46L158.71 36.93L158.27 37.42L157.84 37.94L157.43 38.48L157.03 39.04L156.65 39.63L156.28 40.25L155.93 40.88L155.6 41.53L155.29 42.21L154.99 42.91L154.71 43.62L154.46 44.36L154.22 45.11L154.08 45.63L153.95 46.2L153.84 46.81L153.74 47.47L153.65 48.16L153.57 48.89L153.51 49.64L153.46 50.41L153.42 51.2L153.39 52L153.38 52.81L153.38 53.62L153.39 54.43L153.42 55.23L153.46 56.01L153.51 56.78L153.57 57.53L153.65 58.25L153.74 58.93L153.84 59.58L153.95 60.19L154.08 60.75L154.22 61.25L154.45 61.99L154.69 62.7L154.94 63.38L155.21 64.05L155.48 64.7L155.77 65.32L156.08 65.92L156.39 66.51L156.72 67.07L157.06 67.6L157.41 68.12L157.78 68.62L158.16 69.1L158.55 69.55L158.95 69.99L159.37 70.4L159.8 70.8L160.24 71.17L160.7 71.52L161.17 71.86L161.65 72.17L162.14 72.46L162.65 72.74L163.01 72.91L163.41 73.07L163.83 73.22L164.28 73.36L164.75 73.49L165.25 73.6L165.76 73.7L166.29 73.78L166.83 73.85L167.38 73.91L167.93 73.96L168.49 73.99L169.06 74.01L169.62 74.01L170.18 74L170.73 73.97L171.27 73.93L171.8 73.87L172.32 73.8L172.82 73.71L173.3 73.61L173.75 73.5L174.18 73.36L174.77 73.15L175.36 72.9L175.93 72.61L176.49 72.29L177.05 71.92L177.59 71.53L178.11 71.1L178.63 70.64L179.12 70.15L179.61 69.63L180.08 69.08L180.53 68.5L180.96 67.89L181.37 67.26L181.77 66.6L182.14 65.92L182.5 65.22L182.83 64.49L183.14 63.75L183.43 62.98L183.69 62.2L183.93 61.4L184.14 60.58L184.24 60.09L184.34 59.56L184.42 58.99L184.5 58.38L184.56 57.74L184.61 57.08L184.66 56.4L184.69 55.7L184.71 54.99L184.72 54.27L184.72 53.54L184.71 52.81L184.69 52.09L184.66 51.37L184.62 50.67L184.56 49.99L184.5 49.32L184.43 48.68L184.35 48.07L184.25 47.49L184.15 46.95L184.04 46.46L183.91 46L183.66 45.2L183.39 44.42L183.09 43.66L182.78 42.91L182.44 42.18L182.09 41.47L181.72 40.78L181.33 40.12L180.92 39.48L180.5 38.86L180.06 38.27L179.61 37.7L179.14 37.16L178.67 36.65L178.18 36.17L177.67 35.72L177.16 35.3L176.64 34.91L176.11 34.56L175.57 34.24L175.02 33.95L174.47 33.7L173.91 33.49L173.55 33.38L173.18 33.28L172.78 33.19L172.36 33.1L171.93 33.03L171.49 32.97L171.03 32.92L170.57 32.88L170.1 32.85L169.62 32.83L169.13 32.82L168.65 32.83L168.17 32.84Z" id="b29oNy6VYp"></path></defs><g><g><g><use xlink:href="#d5MdSFgRV9" opacity="1" fill="#000000" fill-opacity="1"></use><g><use xlink:href="#d5MdSFgRV9" opacity="1" fill-opacity="0" stroke="#000000" stroke-width="1" stroke-opacity="0"></use></g></g><g><use xlink:href="#b1pJAOs2hL" opacity="1" fill="#000000" fill-opacity="1"></use><g><use xlink:href="#b1pJAOs2hL" opacity="1" fill-opacity="0" stroke="#000000" stroke-width="1" stroke-opacity="0"></use></g></g><g><use xlink:href="#b2gIBO6Q0x" opacity="1" fill="#000000" fill-opacity="1"></use><g><use xlink:href="#b2gIBO6Q0x" opacity="1" fill-opacity="0" stroke="#000000" stroke-width="1" stroke-opacity="0"></use></g></g><g><use xlink:href="#bad5cIVZJ" opacity="1" fill="#000000" fill-opacity="1"></use><g><use xlink:href="#bad5cIVZJ" opacity="1" fill-opacity="0" stroke="#000000" stroke-width="1" stroke-opacity="0"></use></g></g><g><use xlink:href="#e2z8zz76FI" opacity="1" fill="#000000" fill-opacity="1"></use></g><g><use xlink:href="#aHXE4vZgZ" opacity="1" fill="#63a989" fill-opacity="1"></use><g><use xlink:href="#aHXE4vZgZ" opacity="1" fill-opacity="0" stroke="#000000" stroke-width="1" stroke-opacity="0"></use></g></g><g><g><use xlink:href="#cdrnPY8AE" opacity="1" fill-opacity="0" stroke="#000000" stroke-width="1" stroke-opacity="1"></use></g></g><g><use xlink:href="#b29oNy6VYp" opacity="1" fill="#000000" fill-opacity="1"></use><g><use xlink:href="#b29oNy6VYp" opacity="1" fill-opacity="0" stroke="#000000" stroke-width="1" stroke-opacity="0"></use></g></g></g></g></svg>
