<?xml version="1.0" encoding="UTF-8" standalone="no"?>
<!DOCTYPE svg PUBLIC "-//W3C//DTD SVG 1.1//EN" "http://www.w3.org/Graphics/SVG/1.1/DTD/svg11.dtd">
<svg version="1.1" xmlns="http://www.w3.org/2000/svg" xmlns:xlink="http://www.w3.org/1999/xlink" preserveAspectRatio="xMidYMid meet" viewBox="0 0 640 640" width="640" height="640"><defs><path d="M390.32 332.9L390.32 325.04L389.52 326.39L389.35 326.64L389.18 326.9L389 327.15L388.81 327.4L388.62 327.64L388.42 327.89L388.21 328.13L387.99 328.37L387.76 328.61L387.53 328.84L387.29 329.07L387.05 329.3L386.79 329.52L386.54 329.75L386.27 329.96L386 330.18L385.73 330.39L385.45 330.59L385.16 330.79L384.87 330.99L384.58 331.18L384.28 331.37L383.98 331.56L383.67 331.74L383.36 331.91L383.05 332.08L382.73 332.24L382.41 332.4L382.08 332.55L381.76 332.7L381.43 332.84L381.1 332.98L380.76 333.11L380.43 333.23L380.09 333.35L379.75 333.46L379.41 333.57L379.07 333.67L378.73 333.76L378.38 333.84L378.14 333.89L377.89 333.94L377.62 333.99L377.34 334.03L377.05 334.07L376.74 334.11L376.43 334.14L376.1 334.17L375.77 334.2L375.43 334.22L375.08 334.24L374.72 334.26L374.36 334.28L373.99 334.29L373.61 334.3L373.24 334.3L372.86 334.31L372.47 334.31L372.09 334.3L371.7 334.3L371.32 334.29L370.93 334.27L370.55 334.26L370.17 334.24L369.79 334.22L369.41 334.2L369.04 334.17L368.68 334.14L368.32 334.11L367.97 334.08L367.62 334.04L367.28 334L366.95 333.95L366.63 333.91L366.32 333.86L366.03 333.81L365.74 333.75L365.47 333.69L365.21 333.63L364.96 333.57L364.28 333.39L363.61 333.18L362.96 332.97L362.31 332.73L361.68 332.49L361.06 332.22L360.45 331.94L359.85 331.65L359.26 331.34L358.68 331.02L358.12 330.67L357.56 330.32L357.02 329.95L356.49 329.56L355.97 329.16L355.46 328.74L354.96 328.31L354.47 327.86L354 327.4L353.53 326.92L353.08 326.43L352.64 325.92L352.21 325.4L351.79 324.86L351.39 324.3L350.99 323.73L350.61 323.15L350.24 322.55L349.88 321.94L349.53 321.31L349.19 320.66L348.87 320L348.55 319.33L348.25 318.64L347.96 317.93L347.68 317.21L347.42 316.47L347.16 315.72L346.92 314.96L346.69 314.18L346.62 313.95L346.56 313.73L346.5 313.51L346.44 313.3L346.38 313.09L346.33 312.89L346.28 312.68L346.23 312.48L346.19 312.28L346.15 312.07L346.11 311.87L346.07 311.66L346.03 311.45L346 311.24L345.97 311.03L345.94 310.81L345.91 310.59L345.88 310.36L345.86 310.13L345.83 309.89L345.81 309.64L345.79 309.38L345.78 309.11L345.76 308.84L345.74 308.55L345.73 308.26L345.72 307.95L345.71 307.63L345.7 307.3L345.69 306.95L345.68 306.59L345.68 306.21L345.67 305.82L345.67 305.42L345.66 304.99L345.66 304.55L345.66 304.09L345.66 303.61L345.65 303.11L345.65 302.6L345.65 302.12L345.66 301.66L345.66 301.21L345.66 300.78L345.66 300.36L345.67 299.96L345.67 299.57L345.68 299.19L345.69 298.82L345.69 298.47L345.7 298.13L345.71 297.8L345.72 297.48L345.73 297.17L345.75 296.87L345.76 296.58L345.78 296.3L345.79 296.02L345.81 295.76L345.83 295.5L345.85 295.25L345.87 295.01L345.89 294.78L345.92 294.55L345.94 294.32L345.97 294.11L346 293.89L346.03 293.68L346.06 293.48L346.09 293.28L346.12 293.08L346.16 292.88L346.2 292.69L346.24 292.5L346.28 292.31L346.32 292.12L346.36 291.94L346.41 291.75L346.46 291.56L346.51 291.37L346.71 290.64L346.92 289.92L347.14 289.21L347.38 288.51L347.64 287.82L347.9 287.15L348.18 286.48L348.47 285.83L348.78 285.19L349.09 284.56L349.42 283.95L349.77 283.34L350.12 282.75L350.49 282.17L350.86 281.61L351.25 281.06L351.65 280.52L352.07 279.99L352.49 279.48L352.93 278.98L353.37 278.5L353.83 278.03L354.3 277.57L354.78 277.13L355.27 276.7L355.77 276.29L356.28 275.89L356.8 275.5L357.33 275.14L357.87 274.78L358.42 274.44L358.98 274.12L359.55 273.81L360.13 273.52L360.72 273.25L361.31 272.99L361.92 272.74L362.54 272.52L363.16 272.31L363.79 272.11L364.04 272.04L364.3 271.98L364.57 271.92L364.85 271.86L365.15 271.8L365.45 271.75L365.77 271.71L366.09 271.66L366.42 271.62L366.76 271.58L367.11 271.55L367.47 271.52L367.83 271.49L368.19 271.47L368.57 271.45L368.94 271.43L369.32 271.42L369.7 271.41L370.08 271.41L370.47 271.41L370.86 271.41L371.24 271.41L371.63 271.42L372.01 271.43L372.39 271.45L372.77 271.47L373.15 271.49L373.53 271.52L373.89 271.55L374.26 271.58L374.62 271.62L374.97 271.66L375.32 271.71L375.65 271.75L375.98 271.8L376.3 271.86L376.61 271.92L376.92 271.98L377.21 272.04L377.48 272.11L377.78 272.19L378.07 272.28L378.37 272.36L378.66 272.45L378.95 272.55L379.24 272.65L379.52 272.75L379.81 272.85L380.09 272.96L380.37 273.08L380.65 273.19L380.93 273.31L381.2 273.44L381.47 273.56L381.74 273.69L382.01 273.83L382.28 273.96L382.54 274.1L382.8 274.25L383.06 274.39L383.32 274.54L383.57 274.69L383.82 274.85L384.07 275.01L384.32 275.17L384.56 275.34L384.8 275.51L385.04 275.68L385.27 275.85L385.5 276.03L385.73 276.21L385.95 276.39L386.18 276.58L386.39 276.76L386.61 276.95L386.82 277.15L387.03 277.34L387.23 277.54L387.43 277.75L387.63 277.95L389.87 280.33L389.87 250.3L402.89 250.3L402.89 332.9L390.32 332.9ZM372.44 282.28L372.09 282.3L371.75 282.32L371.44 282.35L371.13 282.39L370.83 282.44L370.54 282.5L370.26 282.56L369.98 282.64L369.7 282.73L369.42 282.83L369.13 282.94L368.83 283.06L368.53 283.2L368.21 283.34L367.88 283.51L367.53 283.68L367.16 283.88L366.48 284.26L365.83 284.69L365.2 285.18L364.59 285.72L364 286.31L363.44 286.95L362.91 287.64L362.4 288.37L361.92 289.14L361.46 289.96L361.04 290.81L360.64 291.7L360.27 292.62L359.94 293.58L359.63 294.57L359.36 295.59L359.13 296.64L358.92 297.71L358.75 298.81L358.62 299.93L358.53 301.07L358.47 302.23L358.45 303.4L358.48 304.61L358.56 305.79L358.68 306.96L358.85 308.11L359.06 309.23L359.32 310.32L359.62 311.39L359.96 312.42L360.34 313.43L360.75 314.39L361.21 315.32L361.69 316.21L362.22 317.06L362.77 317.86L363.36 318.62L363.98 319.33L364.63 319.99L365.31 320.6L366.02 321.15L366.75 321.64L367.51 322.07L368.29 322.44L369.09 322.75L369.45 322.86L369.84 322.97L370.24 323.06L370.66 323.14L371.1 323.21L371.55 323.27L372.01 323.32L372.48 323.36L372.95 323.39L373.43 323.41L373.92 323.43L374.4 323.43L374.89 323.41L375.37 323.39L375.85 323.36L376.32 323.32L376.78 323.27L377.23 323.21L377.66 323.14L378.08 323.06L378.49 322.97L378.87 322.86L379.23 322.75L379.8 322.54L380.36 322.29L380.92 321.99L381.47 321.66L382.01 321.3L382.54 320.9L383.06 320.47L383.57 320.01L384.07 319.51L384.56 318.99L385.03 318.44L385.49 317.87L385.93 317.27L386.35 316.64L386.76 316L387.14 315.33L387.51 314.65L387.85 313.95L388.17 313.23L388.47 312.5L388.74 311.75L388.98 311L389.2 310.23L389.31 309.75L389.42 309.22L389.51 308.65L389.59 308.04L389.66 307.39L389.72 306.71L389.77 306L389.81 305.27L389.84 304.53L389.86 303.77L389.87 303.01L389.87 302.24L389.86 301.48L389.84 300.72L389.81 299.98L389.77 299.25L389.72 298.55L389.66 297.87L389.59 297.23L389.51 296.62L389.42 296.05L389.31 295.53L389.2 295.05L389.01 294.35L388.8 293.66L388.58 293L388.35 292.35L388.1 291.73L387.84 291.12L387.56 290.54L387.27 289.97L386.97 289.42L386.65 288.89L386.32 288.38L385.98 287.89L385.62 287.42L385.25 286.97L384.86 286.53L384.46 286.12L384.05 285.72L383.62 285.35L383.18 284.99L382.72 284.65L382.24 284.33L381.76 284.03L381.26 283.74L381 283.6L380.75 283.47L380.51 283.35L380.28 283.24L380.06 283.13L379.83 283.04L379.62 282.95L379.4 282.87L379.18 282.8L378.95 282.74L378.73 282.68L378.49 282.63L378.25 282.58L378 282.54L377.74 282.5L377.47 282.46L377.18 282.43L376.88 282.41L376.56 282.38L376.22 282.36L375.85 282.34L375.47 282.32L375.06 282.3L374.55 282.29L374.07 282.28L373.63 282.27L373.21 282.27L372.81 282.27L372.44 282.28Z" id="c3ocUXqv9I"></path><path d="M317.6 271.43L318.02 271.44L318.43 271.46L318.85 271.48L319.26 271.5L319.67 271.53L320.08 271.56L320.49 271.6L320.89 271.65L321.29 271.69L321.68 271.74L322.07 271.8L322.45 271.86L322.82 271.92L323.19 271.99L323.54 272.07L323.89 272.14L324.22 272.23L324.55 272.31L324.86 272.4L325.16 272.5L325.45 272.59L325.72 272.7L326.1 272.84L326.46 273L326.83 273.16L327.18 273.32L327.53 273.49L327.88 273.67L328.21 273.85L328.55 274.04L328.87 274.23L329.19 274.43L329.51 274.64L329.81 274.85L330.12 275.07L330.41 275.29L330.7 275.52L330.99 275.76L331.27 276L331.54 276.25L331.81 276.51L332.07 276.77L332.32 277.03L332.57 277.3L332.82 277.58L333.06 277.87L333.29 278.16L333.51 278.46L333.74 278.76L333.95 279.07L334.16 279.39L334.36 279.71L334.56 280.04L334.76 280.38L334.94 280.72L335.12 281.07L335.3 281.42L335.47 281.78L335.63 282.15L335.79 282.52L335.94 282.9L336.09 283.29L336.16 283.49L336.23 283.68L336.3 283.86L336.36 284.05L336.42 284.23L336.47 284.42L336.53 284.62L336.58 284.82L336.62 285.03L336.67 285.26L336.71 285.5L336.75 285.76L336.78 286.04L336.82 286.34L336.85 286.66L336.88 287.01L336.91 287.39L336.93 287.8L336.96 288.25L336.98 288.73L337 289.25L337.02 289.81L337.04 290.41L337.06 291.06L337.07 291.75L337.09 292.49L337.1 293.29L337.11 294.14L337.13 295.05L337.14 296.01L337.15 297.04L337.16 298.13L337.18 299.29L337.19 300.51L337.2 301.81L337.21 303.17L337.22 304.62L337.23 306.14L337.25 307.74L337.26 309.42L337.39 332.9L324.37 332.9L324.24 312.11L324.23 310.4L324.21 308.77L324.2 307.22L324.18 305.75L324.17 304.35L324.15 303.03L324.13 301.78L324.11 300.59L324.09 299.48L324.07 298.42L324.04 297.43L324.01 296.5L323.97 295.62L323.94 294.8L323.9 294.03L323.85 293.31L323.8 292.63L323.75 292L323.69 291.42L323.62 290.87L323.55 290.37L323.48 289.89L323.39 289.46L323.31 289.05L323.21 288.67L323.11 288.32L323 287.99L322.88 287.68L322.76 287.39L322.62 287.12L322.48 286.86L322.33 286.62L322.17 286.38L322 286.16L321.83 285.93L321.64 285.71L321.44 285.5L321.23 285.27L321.01 285.05L320.78 284.82L320.64 284.68L320.5 284.54L320.36 284.41L320.22 284.29L320.07 284.16L319.92 284.04L319.77 283.93L319.62 283.82L319.47 283.71L319.31 283.61L319.15 283.51L318.99 283.41L318.83 283.32L318.66 283.24L318.49 283.15L318.32 283.07L318.14 282.99L317.96 282.92L317.78 282.85L317.6 282.79L317.41 282.72L317.22 282.67L317.02 282.61L316.82 282.56L316.62 282.51L316.41 282.47L316.2 282.42L315.99 282.39L315.77 282.35L315.54 282.32L315.32 282.29L315.08 282.26L314.85 282.24L314.61 282.22L314.36 282.21L314.11 282.19L313.86 282.18L313.6 282.18L313.33 282.17L313.06 282.17L312.54 282.18L312.02 282.21L311.51 282.25L311 282.32L310.51 282.4L310.02 282.5L309.54 282.62L309.07 282.75L308.61 282.9L308.15 283.07L307.71 283.26L307.27 283.46L306.85 283.68L306.43 283.91L306.02 284.16L305.63 284.43L305.24 284.71L304.87 285.01L304.5 285.32L304.14 285.65L303.8 285.99L303.47 286.35L303.15 286.72L302.84 287.11L302.54 287.5L302.25 287.92L301.98 288.35L301.72 288.79L301.47 289.24L301.24 289.71L301.01 290.19L300.81 290.68L300.61 291.18L300.43 291.7L300.26 292.23L300.11 292.77L299.97 293.33L299.84 293.89L299.73 294.47L299.64 295.05L299.62 295.2L299.6 295.36L299.59 295.56L299.57 295.78L299.55 296.03L299.54 296.3L299.52 296.6L299.51 296.92L299.49 297.26L299.47 297.62L299.46 298.01L299.44 298.41L299.43 298.84L299.41 299.28L299.4 299.75L299.38 300.23L299.37 300.73L299.36 301.24L299.34 301.77L299.33 302.32L299.32 302.88L299.31 303.46L299.29 304.05L299.28 304.65L299.27 305.26L299.26 305.89L299.25 306.53L299.24 307.17L299.24 307.83L299.23 308.49L299.22 309.17L299.21 309.85L299.21 310.53L299.2 311.23L299.2 311.93L299.2 312.63L299.19 313.34L299.19 314.05L299.19 314.76L299.19 315.48L299.19 332.81L295.96 333.08L295.28 333.13L294.58 333.18L293.88 333.23L293.16 333.28L292.43 333.33L291.7 333.38L290.96 333.43L290.21 333.48L289.46 333.52L288.7 333.57L287.95 333.62L287.2 333.66L286.44 333.71L285.69 333.75L284.95 333.8L284.21 333.84L283.48 333.88L282.75 333.92L282.04 333.96L281.34 333.99L280.65 334.03L279.97 334.06L279.31 334.09L278.67 334.13L278.05 334.15L277.44 334.18L276.86 334.21L276.29 334.23L275.76 334.25L275.24 334.27L274.76 334.29L274.3 334.3L273.87 334.32L273.47 334.33L273.11 334.33L272.77 334.34L272.48 334.34L272.21 334.34L271.99 334.34L271.8 334.34L271.52 334.32L271.25 334.3L270.98 334.27L270.71 334.24L270.45 334.21L270.19 334.17L269.94 334.12L269.7 334.08L269.45 334.02L269.22 333.96L268.98 333.9L268.75 333.83L268.53 333.76L268.31 333.68L268.1 333.6L267.89 333.51L267.68 333.41L267.48 333.32L267.28 333.21L267.09 333.11L266.9 332.99L266.72 332.88L266.54 332.75L266.36 332.63L266.19 332.49L266.03 332.35L265.86 332.21L265.71 332.06L265.55 331.91L265.4 331.75L265.26 331.59L265.12 331.42L264.98 331.25L264.84 331.07L264.72 330.89L264.59 330.7L264.47 330.5L264.35 330.3L264.24 330.1L264.13 329.89L264.04 329.73L263.96 329.57L263.88 329.42L263.81 329.28L263.74 329.15L263.67 329.02L263.61 328.91L263.55 328.8L263.49 328.69L263.43 328.6L263.38 328.51L263.33 328.43L263.28 328.35L263.24 328.28L263.19 328.22L263.15 328.17L263.11 328.12L263.07 328.07L263.03 328.04L262.99 328.01L262.95 327.98L262.91 327.96L262.88 327.94L262.84 327.94L262.8 327.93L262.77 327.93L262.73 327.94L262.69 327.95L262.66 327.96L262.62 327.98L262.58 328.01L262.54 328.04L262.5 328.07L262.45 328.11L262.41 328.15L262.36 328.19L262.31 328.24L262.26 328.29L262.21 328.35L262.15 328.41L262.05 328.52L261.93 328.63L261.8 328.74L261.65 328.86L261.49 328.98L261.32 329.11L261.14 329.24L260.94 329.37L260.73 329.5L260.51 329.64L260.28 329.77L260.04 329.91L259.8 330.05L259.54 330.19L259.28 330.34L259 330.48L258.72 330.62L258.44 330.77L258.15 330.91L257.85 331.05L257.55 331.19L257.25 331.34L256.94 331.47L256.63 331.61L256.32 331.75L256 331.88L255.69 332.01L255.37 332.14L255.06 332.27L254.74 332.39L254.43 332.51L254.11 332.63L253.8 332.74L253.49 332.85L253.19 332.95L252.89 333.05L252.59 333.14L252.3 333.23L252.02 333.32L251.74 333.39L251.37 333.48L251 333.57L250.62 333.65L250.23 333.73L249.84 333.81L249.44 333.87L249.04 333.94L248.63 334L248.22 334.05L247.8 334.1L247.38 334.15L246.95 334.19L246.53 334.22L246.1 334.25L245.67 334.28L245.24 334.3L244.81 334.32L244.38 334.33L243.95 334.34L243.53 334.34L243.1 334.34L242.68 334.33L242.26 334.32L241.84 334.31L241.43 334.29L241.02 334.26L240.61 334.23L240.21 334.2L239.82 334.16L239.43 334.12L239.05 334.07L238.68 334.02L238.31 333.96L237.96 333.9L237.61 333.84L237.27 333.76L236.94 333.69L236.63 333.61L236.32 333.53L236.02 333.44L235.46 333.25L234.91 333.05L234.37 332.85L233.85 332.63L233.33 332.4L232.83 332.16L232.34 331.92L231.86 331.66L231.4 331.39L230.95 331.12L230.51 330.83L230.08 330.53L229.67 330.23L229.27 329.91L228.88 329.59L228.5 329.25L228.14 328.91L227.79 328.56L227.45 328.2L227.13 327.83L226.82 327.45L226.52 327.06L226.24 326.66L225.97 326.25L225.71 325.84L225.46 325.41L225.23 324.98L225.01 324.54L224.81 324.09L224.62 323.63L224.44 323.16L224.27 322.68L224.12 322.2L223.99 321.71L223.86 321.2L223.75 320.7L223.66 320.18L223.58 319.65L223.51 319.12L223.45 318.58L223.41 317.98L223.38 317.38L223.37 316.8L223.37 316.22L223.39 315.64L223.42 315.08L223.46 314.52L223.52 313.97L223.6 313.42L223.68 312.88L223.79 312.35L223.9 311.83L224.03 311.32L224.17 310.81L224.33 310.32L224.5 309.83L224.69 309.35L224.89 308.88L225.1 308.42L225.32 307.97L225.56 307.53L225.81 307.1L226.08 306.68L226.35 306.27L226.64 305.86L226.95 305.47L227.26 305.09L227.59 304.72L227.93 304.37L228.28 304.02L228.65 303.68L229.03 303.36L229.42 303.05L229.82 302.75L230.23 302.46L230.66 302.18L231.1 301.92L231.54 301.67L232.01 301.43L232.48 301.2L232.71 301.1L232.94 301L233.18 300.9L233.42 300.8L233.66 300.71L233.91 300.61L234.16 300.52L234.42 300.43L234.69 300.34L234.96 300.25L235.24 300.17L235.52 300.08L235.81 299.99L236.12 299.91L236.43 299.83L236.75 299.74L237.08 299.66L237.42 299.58L237.77 299.5L238.13 299.41L238.51 299.33L238.9 299.25L239.3 299.17L239.71 299.09L240.14 299L240.58 298.92L241.03 298.84L241.5 298.75L241.99 298.67L242.49 298.58L243.01 298.5L243.55 298.41L244.1 298.32L244.67 298.23L245.26 298.14L245.87 298.05L246.5 297.95L247.15 297.86L247.81 297.76L248.5 297.66L248.82 297.61L249.14 297.56L249.46 297.51L249.78 297.47L250.1 297.42L250.41 297.37L250.73 297.32L251.04 297.27L251.35 297.22L251.65 297.17L251.96 297.12L252.25 297.07L252.55 297.02L252.84 296.98L253.13 296.93L253.41 296.88L253.69 296.83L253.96 296.78L254.23 296.74L254.49 296.69L254.75 296.65L255 296.6L255.24 296.56L255.47 296.52L255.7 296.47L255.92 296.43L256.13 296.39L256.34 296.36L256.53 296.32L256.72 296.28L256.9 296.25L257.06 296.21L257.22 296.18L257.37 296.15L257.5 296.12L257.63 296.09L257.75 296.07L257.85 296.04L257.94 296.02L258.02 296L258.2 295.94L258.37 295.88L258.55 295.82L258.72 295.75L258.89 295.68L259.05 295.6L259.22 295.52L259.38 295.44L259.54 295.35L259.69 295.26L259.84 295.17L259.99 295.07L260.14 294.97L260.28 294.87L260.42 294.77L260.56 294.66L260.69 294.55L260.82 294.44L260.95 294.32L261.07 294.2L261.19 294.08L261.3 293.96L261.41 293.83L261.52 293.7L261.62 293.58L261.72 293.44L261.81 293.31L261.9 293.18L261.99 293.04L262.07 292.9L262.14 292.76L262.22 292.62L262.28 292.48L262.34 292.34L262.4 292.19L262.45 292.05L262.5 291.9L262.54 291.76L262.57 291.61L262.6 291.46L262.68 291.03L262.73 290.6L262.76 290.18L262.78 289.77L262.77 289.37L262.74 288.98L262.7 288.6L262.63 288.23L262.54 287.87L262.44 287.52L262.31 287.18L262.17 286.85L262.01 286.53L261.83 286.22L261.63 285.93L261.41 285.64L261.17 285.36L260.92 285.09L260.65 284.84L260.36 284.59L260.05 284.36L259.72 284.14L259.38 283.93L259.02 283.73L258.64 283.54L258.24 283.36L257.83 283.2L257.4 283.05L256.95 282.9L256.49 282.78L256.01 282.66L255.51 282.55L255 282.46L254.47 282.38L253.93 282.31L253.37 282.26L252.79 282.22L252.2 282.19L251.6 282.17L250.97 282.17L250.46 282.18L249.96 282.2L249.47 282.22L248.99 282.26L248.53 282.31L248.07 282.37L247.62 282.44L247.18 282.52L246.75 282.61L246.33 282.7L245.93 282.81L245.53 282.93L245.14 283.06L244.77 283.2L244.4 283.34L244.05 283.5L243.7 283.67L243.37 283.84L243.05 284.03L242.74 284.22L242.43 284.43L242.14 284.64L241.87 284.87L241.6 285.1L241.34 285.34L241.09 285.6L240.86 285.86L240.63 286.13L240.42 286.41L240.22 286.7L240.02 287L239.84 287.31L239.68 287.63L239.52 287.96L239.37 288.29L239.24 288.64L239.11 289L239 289.36L238.9 289.73L238.81 290.12L238.49 291.6L225.56 291.6L225.56 290.12L225.57 289.98L225.57 289.83L225.58 289.68L225.6 289.52L225.61 289.35L225.64 289.17L225.66 289L225.69 288.81L225.72 288.62L225.76 288.42L225.8 288.22L225.84 288.02L225.88 287.81L225.93 287.6L225.98 287.39L226.03 287.17L226.09 286.95L226.15 286.73L226.21 286.51L226.27 286.28L226.34 286.06L226.4 285.83L226.47 285.61L226.54 285.38L226.62 285.16L226.69 284.93L226.77 284.71L226.84 284.49L226.92 284.27L227 284.05L227.08 283.83L227.17 283.62L227.25 283.41L227.34 283.21L227.42 283.01L227.51 282.81L227.59 282.62L227.68 282.44L227.77 282.25L227.85 282.08L228.04 281.72L228.25 281.36L228.46 281.01L228.68 280.66L228.91 280.32L229.15 279.99L229.4 279.66L229.67 279.33L229.94 279.01L230.22 278.7L230.51 278.39L230.82 278.08L231.13 277.79L231.45 277.49L231.78 277.21L232.12 276.92L232.47 276.65L232.82 276.38L233.19 276.11L233.57 275.86L233.95 275.6L234.35 275.36L234.75 275.12L235.16 274.88L235.58 274.66L236.01 274.44L236.44 274.22L236.89 274.01L237.34 273.81L237.8 273.61L238.27 273.42L238.75 273.24L239.24 273.07L239.73 272.9L240.23 272.73L240.74 272.58L241.25 272.43L241.78 272.29L242.31 272.15L242.85 272.02L243.18 271.96L243.53 271.89L243.91 271.83L244.32 271.78L244.74 271.73L245.19 271.69L245.66 271.65L246.14 271.61L246.64 271.58L247.15 271.55L247.68 271.53L248.22 271.52L248.77 271.5L249.32 271.49L249.89 271.49L250.46 271.49L251.04 271.5L251.62 271.51L252.2 271.52L252.79 271.54L253.37 271.56L253.95 271.58L254.53 271.61L255.1 271.65L255.66 271.68L256.22 271.72L256.77 271.77L257.31 271.82L257.83 271.87L258.35 271.93L258.84 271.99L259.33 272.05L259.79 272.12L260.23 272.19L260.66 272.27L261.06 272.35L261.44 272.43L261.79 272.52L262.12 272.6L262.42 272.7L262.71 272.79L263.01 272.9L263.3 273L263.59 273.12L263.89 273.23L264.18 273.35L264.47 273.48L264.76 273.61L265.05 273.75L265.33 273.89L265.62 274.03L265.9 274.18L266.18 274.33L266.46 274.48L266.74 274.64L267.01 274.8L267.28 274.96L267.55 275.13L267.81 275.3L268.07 275.47L268.33 275.64L268.58 275.82L268.83 276L269.07 276.18L269.31 276.36L269.55 276.55L269.78 276.74L270 276.93L270.22 277.11L270.43 277.31L270.64 277.5L270.84 277.69L271.04 277.88L271.23 278.08L271.41 278.27L271.58 278.47L271.75 278.66L271.91 278.86L272.06 279.06L272.21 279.25L272.42 279.54L272.61 279.82L272.8 280.09L272.98 280.35L273.14 280.61L273.3 280.87L273.45 281.13L273.6 281.39L273.73 281.65L273.85 281.92L273.97 282.2L274.08 282.49L274.19 282.79L274.28 283.1L274.37 283.44L274.46 283.79L274.53 284.17L274.61 284.56L274.67 284.99L274.73 285.44L274.79 285.92L274.84 286.44L274.89 286.99L274.93 287.57L274.97 288.2L275.01 288.87L275.04 289.58L275.07 290.33L275.1 291.13L275.13 291.98L275.15 292.89L275.17 293.85L275.19 294.86L275.21 295.93L275.22 297.07L275.24 298.26L275.26 299.52L275.27 300.85L275.29 302.25L275.31 303.72L275.31 304.49L275.32 305.24L275.33 305.99L275.34 306.73L275.35 307.47L275.36 308.19L275.37 308.9L275.38 309.59L275.39 310.28L275.4 310.95L275.42 311.61L275.43 312.26L275.44 312.89L275.46 313.51L275.47 314.11L275.49 314.7L275.5 315.27L275.52 315.82L275.53 316.36L275.55 316.88L275.56 317.38L275.58 317.86L275.6 318.32L275.61 318.76L275.63 319.18L275.65 319.58L275.66 319.96L275.68 320.32L275.7 320.65L275.72 320.96L275.73 321.25L275.75 321.51L275.77 321.74L275.79 321.96L275.8 322.14L275.82 322.3L275.84 322.43L275.86 322.54L275.87 322.61L275.89 322.66L275.92 322.72L275.95 322.77L275.98 322.81L276.01 322.86L276.05 322.9L276.09 322.95L276.13 322.99L276.17 323.02L276.22 323.06L276.28 323.09L276.33 323.12L276.4 323.15L276.46 323.18L276.54 323.21L276.61 323.23L276.7 323.26L276.79 323.28L276.88 323.3L276.99 323.32L277.1 323.34L277.21 323.35L277.34 323.37L277.47 323.38L277.61 323.39L277.76 323.4L277.92 323.42L278.09 323.42L278.27 323.43L278.45 323.44L278.65 323.45L278.86 323.45L279.07 323.46L279.3 323.46L279.54 323.46L279.79 323.47L280.06 323.47L280.33 323.47L280.62 323.47L280.92 323.47L281.23 323.47L286.17 323.47L286.17 272.74L298.74 272.74L298.74 281.41L300 279.66L300.2 279.39L300.4 279.12L300.61 278.86L300.82 278.6L301.04 278.35L301.26 278.1L301.48 277.85L301.72 277.61L301.95 277.37L302.19 277.13L302.43 276.9L302.68 276.67L302.94 276.45L303.19 276.22L303.45 276.01L303.72 275.8L303.99 275.59L304.26 275.38L304.53 275.18L304.81 274.99L305.1 274.8L305.38 274.61L305.67 274.43L305.96 274.25L306.26 274.07L306.56 273.91L306.86 273.74L307.17 273.58L307.48 273.43L307.79 273.28L308.1 273.13L308.42 273L308.74 272.86L309.06 272.73L309.38 272.61L309.71 272.49L310.04 272.38L310.37 272.27L310.71 272.17L311.04 272.07L311.32 271.99L311.62 271.92L311.93 271.85L312.25 271.79L312.58 271.73L312.93 271.68L313.28 271.63L313.64 271.59L314.01 271.55L314.39 271.52L314.77 271.49L315.17 271.47L315.56 271.45L315.96 271.44L316.37 271.43L316.78 271.42L317.19 271.42L317.6 271.43ZM261.03 303.72L260.77 303.87L260.47 304.02L260.11 304.16L259.7 304.3L259.23 304.45L258.69 304.59L258.08 304.74L257.38 304.89L256.6 305.05L255.72 305.21L254.75 305.38L253.66 305.57L252.47 305.76L251.15 305.96L250.44 306.07L249.71 306.19L248.99 306.31L248.27 306.43L247.57 306.55L246.89 306.68L246.23 306.8L245.61 306.93L245.02 307.05L244.48 307.17L243.99 307.28L243.56 307.39L243.19 307.49L242.89 307.58L241.67 308.08L240.56 308.72L239.57 309.48L238.71 310.34L237.98 311.28L237.4 312.29L236.96 313.34L236.67 314.42L236.54 315.51L236.57 316.59L236.78 317.64L237.17 318.64L237.73 319.57L238.49 320.42L239.02 320.9L239.52 321.32L240.02 321.7L240.51 322.02L241.01 322.3L241.54 322.53L242.1 322.72L242.7 322.88L243.35 323.01L244.07 323.1L244.86 323.17L245.74 323.21L246.71 323.24L247.79 323.25L248.68 323.24L249.47 323.24L250.17 323.22L250.79 323.2L251.35 323.16L251.86 323.11L252.32 323.05L252.74 322.97L253.14 322.88L253.53 322.76L253.92 322.63L254.32 322.47L254.74 322.29L255.19 322.08L255.78 321.79L256.35 321.48L256.88 321.17L257.38 320.84L257.86 320.49L258.31 320.14L258.74 319.76L259.14 319.37L259.52 318.96L259.87 318.53L260.21 318.08L260.52 317.61L260.81 317.12L261.07 316.6L261.23 316.3L261.36 316L261.48 315.69L261.58 315.37L261.66 315.02L261.72 314.63L261.78 314.2L261.82 313.71L261.84 313.16L261.86 312.54L261.87 311.83L261.86 311.03L261.85 310.12L261.84 309.11L261.81 308.09L261.78 307.2L261.75 306.43L261.72 305.78L261.69 305.22L261.65 304.76L261.6 304.39L261.55 304.1L261.49 303.89L261.42 303.75L261.34 303.67L261.25 303.64L261.15 303.66L261.03 303.72Z" id="b2E7gcm6rU"></path><path d="M598.35 333L598.35 325.14L597.54 326.49L597.38 326.75L597.21 327L597.03 327.25L596.84 327.5L596.64 327.75L596.44 327.99L596.23 328.23L596.01 328.47L595.79 328.71L595.55 328.94L595.31 329.17L595.07 329.4L594.82 329.63L594.56 329.85L594.3 330.06L594.03 330.28L593.75 330.49L593.47 330.69L593.19 330.89L592.9 331.09L592.6 331.29L592.3 331.47L592 331.66L591.69 331.84L591.38 332.01L591.07 332.18L590.75 332.34L590.43 332.5L590.11 332.66L589.78 332.8L589.45 332.95L589.12 333.08L588.79 333.21L588.45 333.34L588.11 333.45L587.77 333.56L587.43 333.67L587.09 333.77L586.75 333.86L586.41 333.94L586.17 334L585.91 334.04L585.64 334.09L585.36 334.13L585.07 334.17L584.77 334.21L584.45 334.24L584.13 334.27L583.79 334.3L583.45 334.32L583.1 334.34L582.74 334.36L582.38 334.38L582.01 334.39L581.64 334.4L581.26 334.4L580.88 334.41L580.5 334.41L580.11 334.4L579.73 334.4L579.34 334.39L578.96 334.38L578.57 334.36L578.19 334.34L577.81 334.32L577.44 334.3L577.07 334.27L576.7 334.24L576.34 334.21L575.99 334.18L575.64 334.14L575.3 334.1L574.98 334.05L574.66 334.01L574.35 333.96L574.05 333.91L573.76 333.85L573.49 333.8L573.23 333.74L572.98 333.67L572.3 333.49L571.64 333.29L570.98 333.07L570.34 332.84L569.7 332.59L569.08 332.32L568.47 332.05L567.87 331.75L567.28 331.44L566.71 331.12L566.14 330.78L565.58 330.42L565.04 330.05L564.51 329.66L563.99 329.26L563.48 328.84L562.98 328.41L562.5 327.96L562.02 327.5L561.56 327.02L561.1 326.53L560.66 326.02L560.23 325.5L559.82 324.96L559.41 324.41L559.02 323.84L558.63 323.25L558.26 322.65L557.9 322.04L557.55 321.41L557.22 320.76L556.89 320.1L556.58 319.43L556.28 318.74L555.99 318.03L555.71 317.31L555.44 316.58L555.19 315.83L554.94 315.06L554.71 314.28L554.64 314.05L554.58 313.83L554.52 313.62L554.46 313.4L554.41 313.19L554.36 312.99L554.31 312.78L554.26 312.58L554.21 312.38L554.17 312.17L554.13 311.97L554.09 311.76L554.06 311.56L554.02 311.35L553.99 311.13L553.96 310.91L553.93 310.69L553.9 310.46L553.88 310.23L553.86 309.99L553.84 309.74L553.82 309.48L553.8 309.22L553.78 308.94L553.77 308.65L553.75 308.36L553.74 308.05L553.73 307.73L553.72 307.4L553.71 307.05L553.71 306.69L553.7 306.32L553.69 305.92L553.69 305.52L553.69 305.09L553.68 304.65L553.68 304.19L553.68 303.71L553.68 303.22L553.68 302.7L553.68 302.22L553.68 301.76L553.68 301.31L553.68 300.88L553.69 300.46L553.69 300.06L553.7 299.67L553.7 299.29L553.71 298.92L553.72 298.57L553.73 298.23L553.73 297.9L553.75 297.58L553.76 297.27L553.77 296.97L553.78 296.68L553.8 296.4L553.82 296.12L553.83 295.86L553.85 295.6L553.87 295.36L553.89 295.11L553.92 294.88L553.94 294.65L553.97 294.43L553.99 294.21L554.02 293.99L554.05 293.79L554.08 293.58L554.11 293.38L554.15 293.18L554.18 292.99L554.22 292.79L554.26 292.6L554.3 292.41L554.34 292.22L554.39 292.04L554.43 291.85L554.48 291.66L554.53 291.47L554.73 290.74L554.94 290.02L555.17 289.31L555.41 288.61L555.66 287.93L555.93 287.25L556.2 286.59L556.5 285.93L556.8 285.29L557.12 284.66L557.45 284.05L557.79 283.45L558.14 282.85L558.51 282.28L558.89 281.71L559.28 281.16L559.68 280.62L560.09 280.09L560.52 279.58L560.95 279.08L561.4 278.6L561.85 278.13L562.32 277.67L562.8 277.23L563.29 276.8L563.79 276.39L564.3 275.99L564.82 275.61L565.35 275.24L565.89 274.88L566.44 274.55L567 274.22L567.57 273.92L568.15 273.62L568.74 273.35L569.34 273.09L569.94 272.85L570.56 272.62L571.18 272.41L571.81 272.21L572.06 272.15L572.32 272.08L572.59 272.02L572.87 271.96L573.17 271.91L573.47 271.85L573.79 271.81L574.11 271.76L574.45 271.72L574.79 271.68L575.14 271.65L575.49 271.62L575.85 271.59L576.22 271.57L576.59 271.55L576.96 271.54L577.34 271.52L577.72 271.51L578.11 271.51L578.49 271.51L578.88 271.51L579.26 271.51L579.65 271.52L580.03 271.54L580.42 271.55L580.8 271.57L581.18 271.59L581.55 271.62L581.92 271.65L582.28 271.68L582.64 271.72L582.99 271.76L583.34 271.81L583.68 271.85L584.01 271.91L584.33 271.96L584.64 272.02L584.94 272.08L585.23 272.15L585.51 272.21L585.8 272.29L586.1 272.38L586.39 272.46L586.68 272.56L586.97 272.65L587.26 272.75L587.55 272.85L587.83 272.96L588.11 273.06L588.39 273.18L588.67 273.29L588.95 273.41L589.22 273.54L589.5 273.66L589.77 273.79L590.04 273.93L590.3 274.06L590.57 274.2L590.83 274.35L591.09 274.49L591.34 274.64L591.6 274.8L591.85 274.95L592.09 275.11L592.34 275.27L592.58 275.44L592.82 275.61L593.06 275.78L593.29 275.95L593.53 276.13L593.75 276.31L593.98 276.49L594.2 276.68L594.42 276.87L594.63 277.06L594.84 277.25L595.05 277.45L595.26 277.65L595.46 277.85L595.65 278.05L597.9 280.43L597.9 250.4L610.92 250.4L610.92 333L598.35 333ZM580.46 282.38L580.11 282.4L579.78 282.42L579.46 282.45L579.15 282.49L578.86 282.54L578.57 282.6L578.28 282.66L578 282.74L577.72 282.83L577.44 282.93L577.15 283.04L576.86 283.16L576.55 283.3L576.23 283.45L575.9 283.61L575.55 283.79L575.18 283.98L574.51 284.36L573.85 284.79L573.22 285.28L572.61 285.82L572.03 286.41L571.47 287.05L570.93 287.74L570.42 288.47L569.94 289.24L569.49 290.06L569.06 290.91L568.66 291.8L568.3 292.73L567.96 293.68L567.66 294.67L567.39 295.69L567.15 296.74L566.95 297.81L566.78 298.91L566.65 300.03L566.55 301.17L566.49 302.33L566.47 303.51L566.5 304.71L566.58 305.9L566.7 307.06L566.87 308.21L567.09 309.33L567.34 310.42L567.64 311.49L567.98 312.52L568.36 313.53L568.78 314.49L569.23 315.42L569.72 316.31L570.24 317.16L570.8 317.97L571.39 318.72L572.01 319.43L572.66 320.09L573.33 320.7L574.04 321.25L574.77 321.74L575.53 322.17L576.31 322.55L577.11 322.85L577.48 322.97L577.86 323.07L578.26 323.16L578.68 323.24L579.12 323.31L579.57 323.37L580.03 323.42L580.5 323.47L580.98 323.5L581.46 323.52L581.94 323.53L582.43 323.53L582.91 323.52L583.4 323.5L583.87 323.47L584.34 323.42L584.8 323.37L585.25 323.31L585.69 323.24L586.11 323.16L586.51 323.07L586.9 322.97L587.26 322.85L587.82 322.64L588.39 322.39L588.94 322.1L589.49 321.77L590.03 321.4L590.56 321L591.09 320.57L591.6 320.11L592.1 319.61L592.58 319.09L593.05 318.54L593.51 317.97L593.95 317.37L594.38 316.74L594.78 316.1L595.16 315.44L595.53 314.75L595.87 314.05L596.19 313.33L596.49 312.6L596.76 311.85L597.01 311.1L597.22 310.33L597.34 309.85L597.44 309.32L597.53 308.75L597.61 308.14L597.68 307.49L597.74 306.81L597.79 306.1L597.84 305.37L597.87 304.63L597.89 303.87L597.9 303.11L597.9 302.34L597.89 301.58L597.87 300.82L597.84 300.08L597.79 299.36L597.74 298.65L597.68 297.97L597.61 297.33L597.53 296.72L597.44 296.15L597.34 295.63L597.22 295.16L597.03 294.45L596.82 293.77L596.6 293.1L596.37 292.46L596.12 291.83L595.86 291.22L595.58 290.64L595.3 290.07L594.99 289.52L594.68 288.99L594.35 288.48L594 287.99L593.65 287.52L593.27 287.07L592.89 286.64L592.49 286.22L592.07 285.83L591.64 285.45L591.2 285.09L590.74 284.75L590.27 284.43L589.78 284.13L589.28 283.84L589.02 283.7L588.77 283.57L588.54 283.45L588.3 283.34L588.08 283.23L587.86 283.14L587.64 283.05L587.42 282.98L587.2 282.9L586.98 282.84L586.75 282.78L586.52 282.73L586.28 282.68L586.03 282.64L585.77 282.6L585.49 282.57L585.21 282.54L584.9 282.51L584.58 282.48L584.24 282.46L583.88 282.44L583.49 282.42L583.08 282.41L582.57 282.39L582.1 282.38L581.65 282.37L581.23 282.37L580.84 282.37L580.46 282.38Z" id="aHX9IQJfN"></path><path d="M525.63 271.53L526.04 271.54L526.46 271.56L526.87 271.58L527.28 271.6L527.7 271.63L528.11 271.67L528.51 271.7L528.91 271.75L529.31 271.79L529.71 271.85L530.09 271.9L530.47 271.96L530.85 272.03L531.21 272.1L531.57 272.17L531.91 272.25L532.25 272.33L532.57 272.41L532.88 272.5L533.18 272.6L533.47 272.7L533.75 272.8L534.12 272.95L534.49 273.1L534.85 273.26L535.21 273.42L535.56 273.59L535.9 273.77L536.24 273.95L536.57 274.14L536.9 274.34L537.22 274.54L537.53 274.74L537.84 274.95L538.14 275.17L538.44 275.4L538.73 275.63L539.01 275.86L539.29 276.1L539.56 276.35L539.83 276.61L540.09 276.87L540.35 277.13L540.6 277.41L540.84 277.69L541.08 277.97L541.31 278.26L541.54 278.56L541.76 278.86L541.97 279.17L542.18 279.49L542.39 279.81L542.59 280.14L542.78 280.48L542.97 280.82L543.15 281.17L543.32 281.52L543.49 281.88L543.66 282.25L543.81 282.63L543.97 283.01L544.12 283.39L544.19 283.59L544.26 283.78L544.32 283.96L544.38 284.15L544.44 284.33L544.5 284.52L544.55 284.72L544.6 284.92L544.65 285.13L544.69 285.36L544.73 285.6L544.77 285.86L544.81 286.14L544.84 286.44L544.87 286.76L544.9 287.11L544.93 287.49L544.96 287.91L544.98 288.35L545 288.83L545.02 289.35L545.04 289.91L545.06 290.51L545.08 291.16L545.09 291.85L545.11 292.6L545.12 293.39L545.14 294.24L545.15 295.15L545.16 296.11L545.18 297.14L545.19 298.23L545.2 299.39L545.21 300.61L545.22 301.91L545.23 303.28L545.24 304.72L545.26 306.24L545.27 307.84L545.28 309.52L545.42 333L532.4 333L532.26 312.21L532.25 310.5L532.24 308.87L532.22 307.32L532.21 305.85L532.19 304.46L532.18 303.13L532.16 301.88L532.14 300.7L532.11 299.58L532.09 298.52L532.06 297.53L532.03 296.6L532 295.72L531.96 294.9L531.92 294.13L531.87 293.41L531.82 292.73L531.77 292.11L531.71 291.52L531.65 290.97L531.58 290.47L531.5 290L531.42 289.56L531.33 289.15L531.23 288.77L531.13 288.42L531.02 288.09L530.91 287.78L530.78 287.49L530.65 287.22L530.51 286.96L530.36 286.72L530.2 286.48L530.03 286.26L529.85 286.04L529.66 285.82L529.46 285.6L529.26 285.38L529.04 285.15L528.81 284.92L528.67 284.78L528.53 284.65L528.39 284.51L528.24 284.39L528.1 284.26L527.95 284.15L527.8 284.03L527.65 283.92L527.49 283.81L527.34 283.71L527.18 283.61L527.01 283.52L526.85 283.42L526.68 283.34L526.51 283.25L526.34 283.17L526.17 283.1L525.99 283.02L525.8 282.95L525.62 282.89L525.43 282.83L525.24 282.77L525.04 282.71L524.84 282.66L524.64 282.61L524.43 282.57L524.22 282.53L524.01 282.49L523.79 282.45L523.57 282.42L523.34 282.39L523.11 282.37L522.87 282.34L522.63 282.32L522.39 282.31L522.14 282.29L521.88 282.28L521.62 282.28L521.36 282.27L521.09 282.27L520.56 282.28L520.04 282.31L519.53 282.35L519.03 282.42L518.53 282.5L518.05 282.6L517.57 282.72L517.09 282.85L516.63 283L516.18 283.17L515.73 283.36L515.3 283.56L514.87 283.78L514.46 284.01L514.05 284.26L513.65 284.53L513.26 284.81L512.89 285.11L512.52 285.42L512.17 285.75L511.82 286.09L511.49 286.45L511.17 286.82L510.86 287.21L510.56 287.61L510.28 288.02L510 288.45L509.74 288.89L509.5 289.34L509.26 289.81L509.04 290.29L508.83 290.78L508.63 291.29L508.45 291.8L508.28 292.33L508.13 292.87L507.99 293.43L507.87 293.99L507.76 294.57L507.66 295.16L507.65 295.3L507.63 295.47L507.61 295.66L507.59 295.88L507.58 296.13L507.56 296.4L507.55 296.7L507.53 297.02L507.51 297.36L507.5 297.72L507.48 298.11L507.47 298.51L507.45 298.94L507.44 299.38L507.42 299.85L507.41 300.33L507.39 300.83L507.38 301.34L507.37 301.88L507.35 302.42L507.34 302.98L507.33 303.56L507.32 304.15L507.31 304.75L507.3 305.37L507.29 305.99L507.28 306.63L507.27 307.28L507.26 307.93L507.25 308.6L507.24 309.27L507.24 309.95L507.23 310.64L507.23 311.33L507.22 312.03L507.22 312.73L507.22 313.44L507.21 314.15L507.21 314.87L507.21 315.58L507.21 332.91L503.98 333.18L503.3 333.23L502.61 333.28L501.9 333.33L501.18 333.38L500.46 333.43L499.72 333.48L498.98 333.53L498.23 333.58L497.48 333.63L496.73 333.67L495.97 333.72L495.22 333.77L494.47 333.81L493.72 333.85L492.97 333.9L492.23 333.94L491.5 333.98L490.78 334.02L490.06 334.06L489.36 334.09L488.67 334.13L488 334.16L487.34 334.2L486.69 334.23L486.07 334.26L485.46 334.28L484.88 334.31L484.32 334.33L483.78 334.35L483.27 334.37L482.78 334.39L482.32 334.41L481.89 334.42L481.5 334.43L481.13 334.44L480.8 334.44L480.5 334.44L480.24 334.44L480.01 334.44L479.83 334.44L479.55 334.42L479.27 334.4L479 334.38L478.74 334.35L478.47 334.31L478.22 334.27L477.97 334.23L477.72 334.18L477.48 334.12L477.24 334.06L477.01 334L476.78 333.93L476.55 333.86L476.34 333.78L476.12 333.7L475.91 333.61L475.7 333.52L475.5 333.42L475.31 333.32L475.11 333.21L474.93 333.1L474.74 332.98L474.56 332.85L474.39 332.73L474.22 332.59L474.05 332.46L473.89 332.31L473.73 332.17L473.58 332.01L473.43 331.85L473.28 331.69L473.14 331.52L473 331.35L472.87 331.17L472.74 330.99L472.61 330.8L472.49 330.61L472.37 330.41L472.26 330.2L472.15 329.99L472.07 329.83L471.98 329.67L471.91 329.52L471.83 329.38L471.76 329.25L471.7 329.13L471.63 329.01L471.57 328.9L471.51 328.8L471.46 328.7L471.4 328.61L471.35 328.53L471.31 328.45L471.26 328.39L471.21 328.32L471.17 328.27L471.13 328.22L471.09 328.18L471.05 328.14L471.01 328.11L470.97 328.08L470.94 328.06L470.9 328.05L470.86 328.04L470.83 328.03L470.79 328.03L470.76 328.04L470.72 328.05L470.68 328.07L470.64 328.09L470.6 328.11L470.56 328.14L470.52 328.17L470.48 328.21L470.43 328.25L470.38 328.3L470.34 328.34L470.29 328.4L470.23 328.45L470.18 328.51L470.07 328.62L469.96 328.73L469.82 328.84L469.68 328.96L469.52 329.08L469.35 329.21L469.16 329.34L468.96 329.47L468.75 329.6L468.54 329.74L468.31 329.88L468.07 330.01L467.82 330.15L467.56 330.3L467.3 330.44L467.03 330.58L466.75 330.72L466.46 330.87L466.17 331.01L465.88 331.15L465.58 331.3L465.27 331.44L464.97 331.58L464.65 331.71L464.34 331.85L464.03 331.98L463.71 332.12L463.4 332.25L463.08 332.37L462.76 332.49L462.45 332.61L462.14 332.73L461.83 332.84L461.52 332.95L461.21 333.05L460.91 333.15L460.62 333.25L460.33 333.33L460.04 333.42L459.76 333.49L459.4 333.59L459.02 333.67L458.64 333.76L458.26 333.83L457.86 333.91L457.47 333.97L457.06 334.04L456.65 334.1L456.24 334.15L455.82 334.2L455.4 334.25L454.98 334.29L454.55 334.32L454.12 334.35L453.7 334.38L453.27 334.4L452.84 334.42L452.41 334.43L451.98 334.44L451.55 334.44L451.12 334.44L450.7 334.43L450.28 334.42L449.86 334.41L449.45 334.39L449.04 334.36L448.64 334.34L448.24 334.3L447.84 334.26L447.46 334.22L447.08 334.17L446.7 334.12L446.34 334.06L445.98 334L445.63 333.94L445.3 333.87L444.97 333.79L444.65 333.71L444.34 333.63L444.05 333.54L443.48 333.35L442.93 333.15L442.4 332.95L441.87 332.73L441.35 332.5L440.85 332.27L440.36 332.02L439.89 331.76L439.42 331.49L438.97 331.22L438.53 330.93L438.11 330.63L437.69 330.33L437.29 330.01L436.9 329.69L436.53 329.36L436.16 329.01L435.81 328.66L435.48 328.3L435.15 327.93L434.84 327.55L434.54 327.16L434.26 326.76L433.99 326.35L433.73 325.94L433.49 325.51L433.25 325.08L433.04 324.64L432.83 324.19L432.64 323.73L432.46 323.26L432.3 322.78L432.15 322.3L432.01 321.81L431.89 321.31L431.78 320.8L431.68 320.28L431.6 319.75L431.53 319.22L431.48 318.68L431.43 318.08L431.41 317.49L431.39 316.9L431.39 316.32L431.41 315.75L431.44 315.18L431.49 314.62L431.55 314.07L431.62 313.52L431.71 312.98L431.81 312.46L431.92 311.93L432.05 311.42L432.2 310.92L432.36 310.42L432.53 309.93L432.71 309.45L432.91 308.98L433.12 308.52L433.35 308.07L433.58 307.63L433.84 307.2L434.1 306.78L434.38 306.37L434.67 305.97L434.97 305.58L435.29 305.2L435.61 304.83L435.95 304.47L436.31 304.12L436.67 303.79L437.05 303.46L437.44 303.15L437.84 302.85L438.26 302.56L438.68 302.28L439.12 302.02L439.57 301.77L440.03 301.53L440.5 301.31L440.73 301.2L440.96 301.1L441.2 301L441.44 300.9L441.68 300.81L441.93 300.72L442.18 300.62L442.44 300.53L442.71 300.44L442.98 300.35L443.26 300.27L443.54 300.18L443.84 300.1L444.14 300.01L444.45 299.93L444.77 299.84L445.1 299.76L445.44 299.68L445.79 299.6L446.16 299.52L446.53 299.43L446.92 299.35L447.32 299.27L447.73 299.19L448.16 299.11L448.6 299.02L449.05 298.94L449.53 298.86L450.01 298.77L450.51 298.69L451.03 298.6L451.57 298.51L452.12 298.42L452.69 298.33L453.28 298.24L453.89 298.15L454.52 298.05L455.17 297.96L455.84 297.86L456.53 297.76L456.85 297.71L457.17 297.66L457.49 297.62L457.8 297.57L458.12 297.52L458.44 297.47L458.75 297.42L459.06 297.37L459.37 297.32L459.68 297.27L459.98 297.22L460.28 297.17L460.57 297.13L460.87 297.08L461.15 297.03L461.44 296.98L461.71 296.93L461.99 296.89L462.25 296.84L462.52 296.79L462.77 296.75L463.02 296.7L463.26 296.66L463.5 296.62L463.72 296.58L463.94 296.54L464.16 296.5L464.36 296.46L464.56 296.42L464.74 296.38L464.92 296.35L465.09 296.31L465.24 296.28L465.39 296.25L465.53 296.22L465.65 296.19L465.77 296.17L465.87 296.14L465.97 296.12L466.05 296.1L466.22 296.04L466.4 295.98L466.57 295.92L466.74 295.85L466.91 295.78L467.08 295.7L467.24 295.62L467.4 295.54L467.56 295.45L467.71 295.36L467.87 295.27L468.02 295.18L468.16 295.08L468.31 294.97L468.45 294.87L468.58 294.76L468.71 294.65L468.84 294.54L468.97 294.42L469.09 294.3L469.21 294.18L469.33 294.06L469.44 293.93L469.54 293.81L469.65 293.68L469.74 293.55L469.84 293.41L469.93 293.28L470.01 293.14L470.09 293L470.17 292.87L470.24 292.72L470.31 292.58L470.37 292.44L470.42 292.3L470.47 292.15L470.52 292.01L470.56 291.86L470.59 291.71L470.62 291.56L470.7 291.13L470.75 290.7L470.79 290.28L470.8 289.87L470.79 289.47L470.76 289.08L470.72 288.7L470.65 288.33L470.57 287.97L470.46 287.62L470.34 287.28L470.19 286.95L470.03 286.64L469.85 286.33L469.65 286.03L469.43 285.74L469.2 285.46L468.94 285.2L468.67 284.94L468.38 284.7L468.07 284.46L467.75 284.24L467.4 284.03L467.04 283.83L466.66 283.64L466.27 283.46L465.85 283.3L465.42 283.15L464.98 283.01L464.51 282.88L464.03 282.76L463.54 282.66L463.03 282.56L462.5 282.48L461.95 282.42L461.39 282.36L460.82 282.32L460.23 282.29L459.62 282.27L459 282.27L458.49 282.28L457.99 282.3L457.5 282.33L457.02 282.36L456.55 282.41L456.09 282.47L455.64 282.54L455.2 282.62L454.77 282.71L454.36 282.81L453.95 282.91L453.55 283.03L453.17 283.16L452.79 283.3L452.43 283.44L452.07 283.6L451.73 283.77L451.39 283.94L451.07 284.13L450.76 284.32L450.46 284.53L450.17 284.74L449.89 284.97L449.62 285.2L449.36 285.45L449.12 285.7L448.88 285.96L448.66 286.23L448.44 286.51L448.24 286.8L448.05 287.1L447.87 287.41L447.7 287.73L447.54 288.06L447.39 288.4L447.26 288.74L447.13 289.1L447.02 289.46L446.92 289.83L446.83 290.22L446.52 291.7L433.59 291.7L433.59 290.22L433.59 290.08L433.6 289.93L433.61 289.78L433.62 289.62L433.64 289.45L433.66 289.28L433.68 289.1L433.71 288.91L433.75 288.72L433.78 288.53L433.82 288.33L433.86 288.12L433.91 287.91L433.95 287.7L434 287.49L434.06 287.27L434.11 287.05L434.17 286.83L434.23 286.61L434.29 286.38L434.36 286.16L434.43 285.93L434.5 285.71L434.57 285.48L434.64 285.26L434.71 285.03L434.79 284.81L434.87 284.59L434.95 284.37L435.03 284.15L435.11 283.94L435.19 283.72L435.27 283.52L435.36 283.31L435.44 283.11L435.53 282.91L435.62 282.72L435.7 282.54L435.79 282.36L435.88 282.18L436.07 281.82L436.27 281.46L436.48 281.11L436.7 280.77L436.93 280.43L437.18 280.09L437.43 279.76L437.69 279.43L437.96 279.11L438.25 278.8L438.54 278.49L438.84 278.18L439.15 277.89L439.47 277.59L439.8 277.31L440.14 277.03L440.49 276.75L440.85 276.48L441.21 276.22L441.59 275.96L441.97 275.71L442.37 275.46L442.77 275.22L443.18 274.99L443.6 274.76L444.03 274.54L444.47 274.32L444.91 274.11L445.37 273.91L445.83 273.72L446.3 273.53L446.77 273.34L447.26 273.17L447.75 273L448.25 272.84L448.76 272.68L449.28 272.53L449.8 272.39L450.33 272.25L450.87 272.13L451.2 272.06L451.56 271.99L451.94 271.93L452.34 271.88L452.77 271.83L453.21 271.79L453.68 271.75L454.16 271.71L454.66 271.68L455.17 271.66L455.7 271.63L456.24 271.62L456.79 271.6L457.35 271.6L457.91 271.59L458.49 271.59L459.06 271.6L459.64 271.61L460.23 271.62L460.81 271.64L461.39 271.66L461.97 271.68L462.55 271.71L463.12 271.75L463.69 271.78L464.25 271.83L464.79 271.87L465.33 271.92L465.86 271.97L466.37 272.03L466.87 272.09L467.35 272.16L467.81 272.22L468.26 272.29L468.68 272.37L469.08 272.45L469.46 272.53L469.82 272.62L470.14 272.71L470.45 272.8L470.74 272.9L471.03 273L471.32 273.1L471.62 273.22L471.91 273.33L472.2 273.46L472.49 273.58L472.78 273.71L473.07 273.85L473.36 273.99L473.64 274.13L473.93 274.28L474.21 274.43L474.48 274.58L474.76 274.74L475.03 274.9L475.3 275.06L475.57 275.23L475.84 275.4L476.1 275.57L476.35 275.75L476.61 275.92L476.85 276.1L477.1 276.28L477.34 276.47L477.57 276.65L477.8 276.84L478.02 277.03L478.24 277.22L478.46 277.41L478.66 277.6L478.86 277.79L479.06 277.99L479.25 278.18L479.43 278.38L479.61 278.57L479.77 278.77L479.93 278.96L480.09 279.16L480.23 279.35L480.44 279.64L480.64 279.92L480.82 280.19L481 280.46L481.17 280.72L481.33 280.97L481.48 281.23L481.62 281.49L481.75 281.75L481.88 282.02L482 282.3L482.11 282.59L482.21 282.89L482.31 283.21L482.4 283.54L482.48 283.89L482.56 284.27L482.63 284.67L482.7 285.09L482.76 285.54L482.81 286.03L482.87 286.54L482.91 287.09L482.96 287.68L483 288.3L483.03 288.97L483.07 289.68L483.1 290.43L483.12 291.23L483.15 292.09L483.17 292.99L483.19 293.95L483.21 294.96L483.23 296.04L483.25 297.17L483.26 298.36L483.28 299.63L483.3 300.95L483.31 302.35L483.33 303.82L483.34 304.59L483.34 305.35L483.35 306.1L483.36 306.84L483.37 307.57L483.38 308.29L483.39 309L483.4 309.69L483.41 310.38L483.43 311.05L483.44 311.71L483.45 312.36L483.47 312.99L483.48 313.61L483.49 314.21L483.51 314.8L483.52 315.37L483.54 315.92L483.56 316.46L483.57 316.98L483.59 317.48L483.6 317.96L483.62 318.42L483.64 318.86L483.65 319.28L483.67 319.68L483.69 320.06L483.71 320.42L483.72 320.75L483.74 321.06L483.76 321.35L483.77 321.61L483.79 321.85L483.81 322.06L483.83 322.24L483.84 322.4L483.86 322.53L483.88 322.64L483.9 322.72L483.91 322.76L483.94 322.82L483.97 322.87L484 322.92L484.03 322.96L484.07 323.01L484.11 323.05L484.15 323.09L484.2 323.12L484.25 323.16L484.3 323.19L484.36 323.23L484.42 323.26L484.49 323.28L484.56 323.31L484.64 323.34L484.72 323.36L484.81 323.38L484.91 323.4L485.01 323.42L485.12 323.44L485.24 323.45L485.36 323.47L485.49 323.48L485.64 323.5L485.79 323.51L485.94 323.52L486.11 323.53L486.29 323.53L486.48 323.54L486.67 323.55L486.88 323.55L487.1 323.56L487.33 323.56L487.56 323.56L487.82 323.57L488.08 323.57L488.35 323.57L488.64 323.57L488.94 323.57L489.26 323.57L494.19 323.57L494.19 272.84L506.76 272.84L506.76 281.51L508.02 279.76L508.22 279.49L508.42 279.22L508.63 278.96L508.84 278.71L509.06 278.45L509.28 278.2L509.51 277.95L509.74 277.71L509.97 277.47L510.21 277.23L510.46 277L510.71 276.77L510.96 276.55L511.22 276.33L511.48 276.11L511.74 275.9L512.01 275.69L512.28 275.48L512.56 275.28L512.84 275.09L513.12 274.9L513.41 274.71L513.69 274.53L513.99 274.35L514.28 274.18L514.58 274.01L514.89 273.84L515.19 273.68L515.5 273.53L515.81 273.38L516.13 273.24L516.44 273.1L516.76 272.96L517.08 272.83L517.41 272.71L517.74 272.59L518.06 272.48L518.4 272.37L518.73 272.27L519.06 272.17L519.35 272.09L519.64 272.02L519.95 271.95L520.27 271.89L520.61 271.83L520.95 271.78L521.3 271.73L521.66 271.69L522.04 271.65L522.41 271.62L522.8 271.59L523.19 271.57L523.59 271.55L523.99 271.54L524.39 271.53L524.8 271.53L525.21 271.53L525.63 271.53ZM469.05 303.82L468.79 303.97L468.49 304.12L468.14 304.26L467.73 304.41L467.26 304.55L466.72 304.69L466.1 304.84L465.41 304.99L464.62 305.15L463.75 305.31L462.77 305.49L461.69 305.67L460.49 305.86L459.18 306.06L458.46 306.17L457.74 306.29L457.01 306.41L456.3 306.53L455.6 306.65L454.91 306.78L454.26 306.91L453.63 307.03L453.04 307.15L452.5 307.27L452.01 307.38L451.58 307.49L451.21 307.59L450.92 307.68L449.69 308.18L448.58 308.82L447.59 309.58L446.73 310.44L446.01 311.38L445.42 312.39L444.98 313.44L444.69 314.52L444.56 315.61L444.6 316.69L444.8 317.74L445.19 318.74L445.76 319.67L446.52 320.52L447.04 321L447.55 321.43L448.04 321.8L448.53 322.12L449.04 322.4L449.56 322.63L450.12 322.83L450.72 322.98L451.37 323.11L452.09 323.2L452.88 323.27L453.76 323.32L454.73 323.34L455.81 323.35L456.7 323.35L457.49 323.34L458.19 323.32L458.82 323.3L459.38 323.26L459.88 323.21L460.34 323.15L460.76 323.07L461.17 322.98L461.56 322.86L461.95 322.73L462.35 322.57L462.77 322.39L463.22 322.18L463.81 321.89L464.37 321.58L464.9 321.27L465.41 320.94L465.89 320.6L466.34 320.24L466.76 319.86L467.17 319.47L467.54 319.06L467.9 318.63L468.23 318.18L468.54 317.71L468.83 317.22L469.1 316.7L469.25 316.4L469.39 316.1L469.5 315.79L469.6 315.47L469.68 315.12L469.75 314.73L469.8 314.3L469.84 313.82L469.87 313.27L469.88 312.64L469.89 311.93L469.89 311.13L469.88 310.22L469.86 309.21L469.83 308.19L469.8 307.31L469.78 306.54L469.74 305.88L469.71 305.32L469.67 304.86L469.63 304.49L469.57 304.21L469.51 303.99L469.45 303.85L469.37 303.77L469.27 303.74L469.17 303.76L469.05 303.82Z" id="dnJq4nHkY"></path><path d="M413.34 250.66L425.75 250.66L425.75 333.7L413.34 333.7L413.34 250.66Z" id="d4FTYysfE"></path><path d="M192.4 334.82L191.74 334.81L192.4 334.82L192.4 334.82ZM161.42 250.49L161.42 250.49L160.86 250.49L160.86 251.65L160.18 252.82L160.21 252.83L138.6 292.68L116.62 333.27L20.81 333.27L21.57 331.79L21.66 331.63L21.79 331.38L21.98 331.03L22.21 330.6L22.5 330.06L22.84 329.44L23.22 328.72L23.66 327.91L24.15 327L24.69 326L25.28 324.91L25.92 323.72L26.61 322.45L27.36 321.07L28.15 319.61L28.99 318.05L29.89 316.4L30.83 314.65L31.83 312.81L32.88 310.88L33.97 308.85L35.12 306.73L36.32 304.52L37.57 302.22L38.87 299.82L40.22 297.32L41.62 294.74L43.08 292.06L44.58 289.29L46.13 286.42L47.74 283.46L49.39 280.41L51.1 277.26L52.85 274.02L54.66 270.69L56.52 267.27L58.43 263.75L60.39 260.13L62.4 256.43L64.46 252.63L65.8 250.3L119.67 250.39L161.42 250.49ZM168.7 250.51L168.7 250.51L173.59 250.52L168.7 250.51Z" id="a5iO3UmYUs"></path><path d="" id="d2AoZFk13X"></path><path d="M168.4 250.3L168.4 250.31L173.28 250.32L173.42 265.26L173.51 280.15L175.89 277.82L176.21 277.5L176.53 277.19L176.86 276.89L177.19 276.6L177.52 276.32L177.86 276.04L178.19 275.78L178.53 275.52L178.87 275.27L179.21 275.04L179.56 274.8L179.91 274.58L180.26 274.37L180.62 274.16L180.98 273.97L181.34 273.78L181.7 273.6L182.07 273.43L182.45 273.26L182.83 273.11L183.21 272.96L183.6 272.82L183.99 272.69L184.38 272.57L184.78 272.45L185.19 272.34L185.6 272.24L186.01 272.15L186.43 272.07L186.86 271.99L187.29 271.92L187.73 271.86L188.17 271.81L188.62 271.76L189.08 271.72L189.54 271.69L190.01 271.66L190.48 271.64L190.96 271.63L191.45 271.63L192.39 271.64L193.31 271.68L194.22 271.75L195.12 271.85L196 271.97L196.87 272.12L197.72 272.3L198.56 272.5L199.38 272.73L200.19 272.99L200.98 273.27L201.76 273.58L202.52 273.92L203.27 274.28L204 274.67L204.71 275.08L205.41 275.52L206.09 275.99L206.75 276.48L207.4 276.99L208.03 277.54L208.65 278.1L209.25 278.7L209.83 279.31L210.39 279.95L210.94 280.62L211.46 281.31L211.97 282.03L212.47 282.77L212.94 283.53L213.4 284.32L213.84 285.13L214.25 285.97L214.66 286.83L215.04 287.71L215.4 288.62L215.74 289.55L216.07 290.51L216.37 291.48L216.66 292.49L216.76 292.88L216.86 293.31L216.95 293.75L217.04 294.21L217.12 294.7L217.19 295.2L217.26 295.72L217.33 296.25L217.39 296.8L217.44 297.36L217.49 297.94L217.54 298.52L217.57 299.12L217.61 299.72L217.64 300.33L217.66 300.95L217.68 301.57L217.69 302.2L217.7 302.82L217.7 303.45L217.7 304.08L217.69 304.71L217.68 305.33L217.66 305.95L217.64 306.57L217.61 307.18L217.57 307.79L217.54 308.38L217.49 308.97L217.44 309.54L217.39 310.1L217.33 310.65L217.26 311.19L217.19 311.7L217.12 312.21L217.04 312.69L216.95 313.15L216.86 313.6L216.76 314.02L216.66 314.42L216.41 315.29L216.15 316.15L215.87 316.99L215.58 317.81L215.27 318.61L214.95 319.39L214.61 320.16L214.26 320.9L213.9 321.63L213.53 322.34L213.13 323.02L212.73 323.69L212.31 324.34L211.88 324.97L211.44 325.59L210.98 326.18L210.51 326.75L210.02 327.3L209.52 327.84L209.01 328.35L208.49 328.84L207.95 329.32L207.4 329.77L206.83 330.21L206.26 330.62L205.67 331.01L205.07 331.39L204.45 331.74L203.83 332.07L203.19 332.39L202.53 332.68L201.87 332.95L201.19 333.2L200.5 333.43L199.8 333.64L199.09 333.83L198.36 334L197.63 334.15L196.88 334.27L196.12 334.38L195.44 334.45L194.77 334.52L194.1 334.56L193.43 334.6L192.76 334.62L192.1 334.62L191.43 334.61L190.77 334.59L190.12 334.55L189.47 334.5L188.82 334.44L188.18 334.37L187.55 334.28L186.92 334.17L186.3 334.06L185.68 333.93L185.08 333.8L184.48 333.64L183.89 333.48L183.31 333.31L182.74 333.12L182.18 332.92L181.63 332.71L181.09 332.49L180.56 332.26L180.05 332.02L179.55 331.76L179.06 331.5L178.59 331.22L178.13 330.94L177.68 330.64L177.25 330.34L176.83 330.02L176.43 329.7L176.05 329.37L175.69 329.02L175.34 328.67L175.01 328.31L174.7 327.94L174.4 327.56L173.06 325.72L173.06 333.08L161.62 333.08L161.62 332.99L160.55 332.99L160.55 250.3L161.62 250.3L161.62 250.3L161.71 250.3L168.4 250.3ZM188.08 282.46L187.6 282.48L187.12 282.51L186.65 282.56L186.19 282.61L185.74 282.68L185.3 282.75L184.87 282.84L184.46 282.93L184.06 283.04L183.69 283.16L183.14 283.36L182.6 283.59L182.06 283.86L181.54 284.16L181.02 284.49L180.52 284.84L180.03 285.23L179.55 285.64L179.08 286.08L178.63 286.55L178.19 287.04L177.76 287.56L177.35 288.1L176.95 288.66L176.57 289.25L176.2 289.87L175.85 290.5L175.52 291.16L175.21 291.83L174.91 292.53L174.63 293.24L174.37 293.98L174.14 294.73L174 295.25L173.87 295.82L173.75 296.43L173.65 297.09L173.56 297.78L173.49 298.51L173.42 299.26L173.37 300.03L173.33 300.82L173.31 301.62L173.3 302.43L173.3 303.24L173.31 304.05L173.33 304.85L173.37 305.63L173.42 306.4L173.49 307.15L173.56 307.87L173.65 308.55L173.75 309.2L173.87 309.81L174 310.37L174.14 310.87L174.36 311.61L174.6 312.32L174.86 313.01L175.12 313.67L175.4 314.32L175.69 314.94L175.99 315.54L176.31 316.13L176.64 316.69L176.98 317.23L177.33 317.74L177.7 318.24L178.07 318.72L178.47 319.17L178.87 319.61L179.29 320.02L179.72 320.42L180.16 320.79L180.61 321.14L181.08 321.48L181.57 321.79L182.06 322.08L182.57 322.36L182.93 322.53L183.32 322.69L183.75 322.84L184.2 322.98L184.67 323.11L185.16 323.22L185.68 323.32L186.2 323.4L186.74 323.48L187.29 323.53L187.85 323.58L188.41 323.61L188.98 323.63L189.54 323.63L190.1 323.62L190.65 323.59L191.19 323.55L191.72 323.49L192.24 323.42L192.73 323.34L193.21 323.23L193.67 323.12L194.1 322.98L194.69 322.77L195.27 322.52L195.85 322.23L196.41 321.91L196.96 321.55L197.5 321.15L198.03 320.72L198.54 320.26L199.04 319.77L199.52 319.25L199.99 318.7L200.44 318.12L200.88 317.51L201.29 316.88L201.68 316.22L202.06 315.54L202.41 314.84L202.75 314.11L203.06 313.37L203.34 312.6L203.61 311.82L203.84 311.02L204.05 310.2L204.16 309.71L204.26 309.18L204.34 308.61L204.41 308L204.48 307.36L204.53 306.7L204.57 306.02L204.6 305.32L204.63 304.61L204.64 303.89L204.64 303.16L204.63 302.43L204.61 301.71L204.57 300.99L204.53 300.29L204.48 299.61L204.42 298.94L204.35 298.3L204.26 297.69L204.17 297.11L204.07 296.57L203.95 296.08L203.83 295.62L203.58 294.83L203.31 294.04L203.01 293.28L202.7 292.53L202.36 291.8L202.01 291.09L201.63 290.4L201.25 289.74L200.84 289.1L200.42 288.48L199.98 287.89L199.53 287.32L199.06 286.78L198.58 286.27L198.09 285.79L197.59 285.34L197.08 284.92L196.56 284.53L196.03 284.18L195.49 283.86L194.94 283.57L194.39 283.32L193.83 283.11L193.47 283L193.09 282.9L192.7 282.81L192.28 282.72L191.85 282.65L191.41 282.59L190.95 282.54L190.49 282.5L190.01 282.47L189.53 282.45L189.05 282.44L188.57 282.45L188.08 282.46Z" id="bIdj3onYZ"></path></defs><g><g><g><use xlink:href="#c3ocUXqv9I" opacity="1" fill="#000000" fill-opacity="1"></use><g><use xlink:href="#c3ocUXqv9I" opacity="1" fill-opacity="0" stroke="#000000" stroke-width="1" stroke-opacity="0"></use></g></g><g><use xlink:href="#b2E7gcm6rU" opacity="1" fill="#000000" fill-opacity="1"></use><g><use xlink:href="#b2E7gcm6rU" opacity="1" fill-opacity="0" stroke="#000000" stroke-width="1" stroke-opacity="0"></use></g></g><g><use xlink:href="#aHX9IQJfN" opacity="1" fill="#000000" fill-opacity="1"></use><g><use xlink:href="#aHX9IQJfN" opacity="1" fill-opacity="0" stroke="#000000" stroke-width="1" stroke-opacity="0"></use></g></g><g><use xlink:href="#dnJq4nHkY" opacity="1" fill="#000000" fill-opacity="1"></use><g><use xlink:href="#dnJq4nHkY" opacity="1" fill-opacity="0" stroke="#000000" stroke-width="1" stroke-opacity="0"></use></g></g><g><use xlink:href="#d4FTYysfE" opacity="1" fill="#000000" fill-opacity="1"></use></g><g><use xlink:href="#a5iO3UmYUs" opacity="1" fill="$green" fill-opacity="1"></use><g><use xlink:href="#a5iO3UmYUs" opacity="1" fill-opacity="0" stroke="#000000" stroke-width="1" stroke-opacity="0"></use></g></g><g><g><use xlink:href="#d2AoZFk13X" opacity="1" fill-opacity="0" stroke="#000000" stroke-width="1" stroke-opacity="1"></use></g></g><g><use xlink:href="#bIdj3onYZ" opacity="1" fill="#000000" fill-opacity="1"></use><g><use xlink:href="#bIdj3onYZ" opacity="1" fill-opacity="0" stroke="#000000" stroke-width="1" stroke-opacity="0"></use></g></g></g></g></svg>
